<svg width="283" height="60" viewBox="0 0 283 60" fill="none" xmlns="http://www.w3.org/2000/svg">
<g clip-path="url(#clip0_151_2225)">
<path d="M44.9883 47.9497C44.3573 47.9497 43.7439 48.0511 43.1702 48.2274C41.6522 48.7078 40.3946 49.77 39.6665 51.154C39.2164 51.9958 38.9648 52.9567 38.9648 53.9704V54.0454C39.0046 57.3378 41.6875 59.9955 44.9927 59.9955C48.2979 59.9955 50.9852 57.3378 51.025 54.0454V53.9704C51.025 50.6427 48.3243 47.9497 44.9927 47.9497H44.9883Z" fill="#86B700"/>
<path d="M16.7685 48.2098C16.2169 48.0423 15.6256 47.9497 15.0166 47.9497C11.685 47.9497 8.98877 50.6427 8.98877 53.9704V54.0454C9.02848 57.3378 11.7115 59.9955 15.0166 59.9955C18.3218 59.9955 21.0092 57.3378 21.0489 54.0454V53.9704C21.0489 52.9743 20.8062 52.0311 20.3737 51.1981C19.6324 49.77 18.335 48.677 16.7685 48.2053V48.2098Z" fill="#86B700"/>
<path d="M54.6389 37.094C54.1094 36.812 53.5534 36.5872 52.9709 36.4109C52.0575 36.1332 51.0911 35.9833 50.0894 35.9833H47.9933C47.9933 26.0487 39.9267 17.9917 29.9804 17.9917C29.4243 17.9917 28.8727 18.0137 28.3344 18.0666C27.6636 18.1283 27.0105 18.2209 26.3663 18.3575C26.5384 17.476 26.7855 16.6166 27.09 15.7923C27.8004 15.9554 28.5285 16.07 29.2699 16.1405C29.8171 16.1934 30.3731 16.2199 30.9335 16.2199C37.9454 16.2199 44.035 12.0503 46.996 5.98554C47.3005 5.37289 47.5653 4.74261 47.7947 4.0947C45.9855 3.46001 44.0439 3.11182 42.0228 3.11182C37.1467 3.11182 32.7251 5.12166 29.4861 8.38766C27.5886 10.2961 26.0971 12.6277 25.1616 15.2414C24.738 16.4182 24.4247 17.6479 24.2437 18.9261C23.6789 19.1112 23.1273 19.3316 22.589 19.574C20.3473 20.5833 18.3527 22.0334 16.7111 23.8229C13.7722 27.0228 11.9718 31.2893 11.9718 35.9833H9.88016C4.43039 35.9833 0.00878906 40.3997 0.00878906 45.843V54.0455H6.04105V53.9706C6.04105 49.2192 9.73454 45.3362 14.4077 45.0276C14.6062 45.01 14.8136 45.0056 15.0166 45.0056C19.6236 45.0056 23.423 48.4699 23.9348 52.9348C23.979 53.2786 23.9966 53.6224 23.9966 53.9706V54.0455H36.0082V53.9706C36.0082 53.6135 36.0303 53.2609 36.07 52.9127C36.5907 48.4567 40.3857 45.0012 44.9838 45.0012C45.1735 45.0012 45.3633 45.0012 45.5486 45.0232C50.2438 45.3141 53.9638 49.2104 53.9638 53.9706V54.0455H59.9563V45.843C59.9563 42.0349 57.7941 38.7337 54.6301 37.094H54.6389ZM17.8805 35.9789C17.8805 31.9152 19.8883 28.3274 22.9596 26.1413C23.4097 25.8107 23.8863 25.5198 24.3805 25.2686C24.9807 24.9512 25.6117 24.6868 26.2648 24.4796C27.4342 24.0962 28.683 23.8934 29.9804 23.8934C36.6613 23.8934 42.0758 29.3015 42.0758 35.9745H17.8805V35.9789Z" fill="#86B700"/>
<path d="M23.7009 14.6595C24.7909 11.6227 26.5737 8.9297 28.8507 6.78763C26.9134 2.77676 22.7919 0 18.0217 0C16.3228 0 14.7077 0.352604 13.2427 0.991699C14.3194 7.1226 18.3262 12.2089 23.7009 14.6551V14.6595Z" fill="#FFC20E"/>
<path d="M270.216 17.1057C270.057 17.2952 258.482 29.1339 258.482 29.1339L253.862 24.4002C253.862 24.4002 255.588 22.5842 256.435 21.6939C258.125 19.9133 259.828 18.1502 261.501 16.352C262.202 15.5939 263.032 15.2677 264.047 15.2721C265.812 15.2809 267.582 15.2809 269.347 15.2721C269.832 15.2677 270.251 15.3647 270.468 15.8539C270.671 16.3211 270.521 16.731 270.216 17.1012V17.1057Z" fill="#FFC20E"/>
<path d="M269.709 43.1851C267.683 43.2027 265.666 43.1983 263.641 43.1806C262.763 43.1762 262.079 42.7619 261.479 42.1228C258.924 39.4166 254.096 33.7441 254.096 33.7441L258.482 29.1382C258.482 29.1382 266.359 37.2481 270.093 41.0606C270.287 41.2678 270.485 41.4926 270.6 41.7482C270.931 42.4843 270.507 43.1762 269.704 43.1806L269.709 43.1851Z" fill="#FFC20E"/>
<path d="M107.923 21.5881C107.517 19.2653 106.383 17.423 104.216 16.3343C102.848 15.6511 101.383 15.4043 99.8698 15.4043C93.6478 15.4043 87.4126 15.4043 81.195 15.4175C80.4271 15.4175 79.6417 15.488 78.8827 15.6335C76.2526 16.158 74.3772 17.6213 73.4461 20.1909C72.996 21.4691 72.8945 22.7914 72.8945 24.1268V41.1708C72.8945 41.3736 72.8945 41.5631 72.9078 41.7659C72.996 42.8545 73.4903 43.3041 74.5802 43.3173H78.4767C79.7829 43.3173 80.308 42.7928 80.308 41.475C80.3212 39.6767 80.3212 37.874 80.3212 36.0757V35.4675H100.699C100.699 37.3848 100.699 39.258 100.713 41.1312C100.713 41.4353 100.713 41.7394 100.757 42.0479C100.889 42.8457 101.339 43.2953 102.138 43.3129C103.652 43.3438 105.174 43.3438 106.688 43.3129C107.5 43.2997 107.95 42.8501 108.095 42.0215C108.126 41.7747 108.139 41.5146 108.139 41.2678C108.139 35.5336 108.153 29.7994 108.139 24.0651C108.139 23.2365 108.064 22.4123 107.923 21.5969V21.5881ZM100.686 28.8914H80.4271C80.4271 27.2209 80.3389 25.5813 80.4536 23.9549C80.5419 22.8222 81.4553 22.1258 82.5894 21.9936C83.0263 21.9495 83.4455 21.9231 83.8823 21.9231C88.3569 21.9098 92.8359 21.9098 97.3104 21.9231C97.7738 21.9231 98.2547 21.9539 98.7048 22.0553C99.8389 22.3021 100.607 23.0999 100.669 24.2767C100.739 25.8017 100.682 27.3399 100.682 28.8914H100.686Z" fill="#86B700"/>
<path d="M233.886 21.6188C233.48 19.2652 232.333 17.4096 230.135 16.321C228.785 15.6378 227.302 15.4042 225.788 15.4042C219.584 15.4042 213.375 15.391 207.171 15.4174C206.372 15.4174 205.573 15.4879 204.801 15.6334C202.198 16.1711 200.34 17.6212 199.409 20.1776C198.946 21.4425 198.844 22.778 198.844 24.1135V41.2016C198.844 41.3779 198.844 41.563 198.857 41.7393C198.946 42.8588 199.44 43.3084 200.556 43.3216H204.395C205.746 43.3216 206.257 42.8147 206.271 41.4616V36.0447C206.271 35.8552 206.284 35.6657 206.284 35.463H226.644C226.644 37.4067 226.644 39.2799 226.658 41.1531C226.658 41.444 226.658 41.7349 226.702 42.0082C226.834 42.85 227.311 43.2864 228.171 43.2996C229.654 43.3304 231.123 43.3304 232.606 43.2996C233.436 43.2864 233.899 42.85 234.031 42.0346C234.076 41.7746 234.089 41.4969 234.089 41.2236C234.089 35.5202 234.102 29.7992 234.089 24.0782C234.089 23.2496 234.018 22.4254 233.886 21.61V21.6188ZM226.618 28.9045H206.372C206.372 27.2341 206.284 25.5812 206.403 23.9416C206.491 22.8397 207.392 22.1433 208.495 22.0111C208.901 21.9538 209.324 21.923 209.744 21.923C214.249 21.9097 218.768 21.9097 223.273 21.923C223.723 21.923 224.173 21.9538 224.623 22.0375C225.744 22.2712 226.525 23.0557 226.6 24.2281C226.689 25.7663 226.614 27.3222 226.614 28.9045H226.618Z" fill="#86B700"/>
<path d="M147.387 41.8233C147.347 42.7621 146.835 43.2954 145.886 43.3086C144.443 43.3307 142.996 43.3307 141.553 43.3086C140.516 43.2954 140.013 42.7445 140.013 41.6382C140.008 36.1949 140.013 30.7471 140.004 25.3038C140.004 24.8895 139.973 24.4752 139.907 24.0653C139.713 22.9017 138.901 22.1304 137.736 21.9937C137.308 21.9408 122.34 21.9408 121.934 22.0025C120.627 22.1921 119.793 23.1882 119.767 24.625C119.741 25.9605 119.758 37.1028 119.754 41.3385C119.754 42.8414 119.282 43.3131 117.786 43.3131C116.541 43.3131 115.297 43.3131 114.048 43.3131C112.923 43.3086 112.433 42.8503 112.349 41.7396C112.336 41.5588 112.331 29.8039 112.336 24.1049C112.336 22.7695 112.433 21.4472 112.896 20.1734C113.832 17.5994 115.707 16.1449 118.342 15.6292C119.114 15.4794 119.917 15.4133 120.702 15.4088C123.774 15.3824 136.227 15.3868 139.386 15.4088C141.085 15.4221 142.722 15.7659 144.17 16.7091C146.045 17.9344 146.963 19.7635 147.263 21.9232C147.369 22.6681 147.395 41.6029 147.387 41.8189V41.8233Z" fill="#86B700"/>
<path d="M196.192 20.1645C196.192 21.4074 195.707 21.9099 194.458 21.9143C190.65 21.9231 182.301 21.9143 182.301 21.9143C182.301 21.9143 182.305 41.4794 182.292 41.6777C182.203 42.8457 181.705 43.3129 180.531 43.3173C179.229 43.3173 177.932 43.3173 176.63 43.3173C175.425 43.3173 174.874 42.784 174.865 41.572C174.852 39.5357 174.865 21.9187 174.865 21.9187C174.865 21.9187 162.584 21.9187 162.333 21.9011C161.538 21.8438 161.013 21.3501 160.996 20.5479C160.965 19.305 160.969 18.0577 160.996 16.8147C161.013 15.9949 161.525 15.5013 162.359 15.4175C162.54 15.3999 194.515 15.4043 194.643 15.4087C195.632 15.4484 196.179 15.9861 196.192 16.9734C196.205 18.0356 196.201 19.1023 196.192 20.1645Z" fill="#86B700"/>
<path d="M282.987 41.8672C282.934 42.762 282.453 43.2865 281.561 43.3085C280.065 43.3394 278.565 43.3394 277.069 43.3085C276.173 43.2909 275.648 42.7223 275.617 41.8188C275.6 41.2061 275.613 17.3172 275.613 17.3172C275.613 15.8847 276.094 15.4043 277.524 15.4043C278.715 15.4043 279.907 15.4043 281.098 15.4043C282.545 15.4043 283.004 15.8539 283.004 17.3128C283.004 20.0939 283.004 41.616 282.991 41.8672H282.987Z" fill="#86B700"/>
<path d="M258.487 29.1385L246.136 42.1011C245.315 42.9826 244.388 43.3572 243.21 43.3308C241.511 43.2955 239.821 43.3176 238.122 43.3264C237.654 43.3264 237.248 43.2338 237.032 42.7799C236.807 42.3215 236.939 41.9028 237.248 41.5325C237.407 41.3342 237.579 41.1491 237.751 40.9684C241.414 37.2263 249.225 29.3192 249.225 29.3192C249.225 29.3192 241.445 21.3459 237.809 17.5863C237.504 17.2734 237.266 16.8238 237.169 16.4007C237.054 15.907 237.443 15.4354 237.959 15.431C240.156 15.4134 242.354 15.4266 244.556 15.4663C245.302 15.4795 245.862 15.9291 246.356 16.4536C246.595 16.7048 258.491 29.1341 258.491 29.1341L258.487 29.1385Z" fill="#86B700"/>
</g>
<defs>
<clipPath id="clip0_151_2225">
<rect width="283" height="60" fill="white"/>
</clipPath>
</defs>
</svg>
