<svg width="139" height="32" viewBox="0 0 139 32" fill="none" xmlns="http://www.w3.org/2000/svg">
<g clip-path="url(#clip0_151_2368)">
<path d="M138.635 10.4982C136.754 10.4947 134.874 10.4896 132.993 10.493C130.828 10.4964 129.473 11.5323 128.914 13.6161C128.648 14.6124 128.398 15.6121 128.134 16.6084C127.752 18.0538 127.749 18.0194 126.222 18.0486C125.512 18.0624 125.484 17.8249 125.667 17.2537C126.102 15.8909 126.518 14.5212 126.884 13.1377C127.323 11.4772 126.561 10.5102 124.835 10.493C123.331 10.4775 121.825 10.5136 120.322 10.4775C119.792 10.4637 119.573 10.6393 119.412 11.1331C118.726 13.2255 117.993 15.3024 117.274 17.3844C117.175 17.6701 117.168 18.0349 116.72 18.0314C116.103 18.028 115.487 18.0297 114.796 18.0297C114.93 17.6236 115.015 17.3535 115.107 17.0868C115.61 15.6276 116.171 14.1839 116.605 12.7041C117.01 11.3275 116.345 10.4964 114.943 10.481C113.931 10.4706 112.915 10.5326 111.906 10.4672C109.878 10.3347 108.998 11.2828 108.39 12.9811C107.86 14.4627 107.337 15.9476 106.86 17.4464C106.712 17.9092 106.526 18.1329 106.021 18.0538C105.768 18.0142 105.497 18.0194 105.241 18.0538C104.479 18.1588 104.415 17.8903 104.641 17.2192C105.693 14.103 106.731 10.98 107.697 7.83623C108.266 5.9813 107.435 4.80778 105.498 4.7596C102.463 4.68389 99.4222 4.73035 96.385 4.71658C96.0985 4.71486 95.8762 4.75444 95.7824 5.06416C95.548 5.83848 95.3066 6.61108 95.0409 7.47143C95.4247 7.47143 95.6835 7.49208 95.937 7.46627C96.4284 7.41809 96.6351 7.52822 96.4198 8.0668C96.1766 8.67765 95.97 9.30571 95.805 9.94065C95.6869 10.3949 95.449 10.5515 95.0062 10.462C94.2525 10.3072 93.9035 10.6702 93.7906 11.3706C93.749 11.6218 93.6413 11.8627 93.5631 12.1087C93.2454 13.1033 93.2454 13.1068 94.2838 13.1463C94.6103 13.1584 94.968 13.1016 94.7926 13.6333C94.3481 14.9926 93.9018 16.352 93.4833 17.72C93.3947 18.0073 93.2367 18.0607 92.9814 18.0607C90.1196 18.0572 87.2578 18.0589 84.3108 18.0589C85.0506 15.5209 85.7713 13.0569 86.5163 10.5033C84.4776 10.5033 82.517 10.5016 80.5582 10.5033C78.5299 10.505 77.4689 11.2329 76.7881 13.1394C76.3366 14.4059 75.8574 15.6689 75.5239 16.968C75.2808 17.911 74.7981 18.176 73.8794 18.0676C73.3689 18.0073 73.2404 17.9488 73.4262 17.4188C73.9194 16.0165 74.3691 14.5969 74.7894 13.1721C75.2808 11.5065 74.5306 10.5068 72.834 10.5033C71.1565 10.4999 69.4773 10.5291 67.7998 10.4844C67.225 10.4689 67.0149 10.6668 66.8603 11.195C66.3724 12.8693 65.8184 14.5263 65.2905 16.1903C64.6897 18.0796 64.6879 18.0796 62.6614 18.0228C62.6127 18.0211 62.5659 17.9815 62.4391 17.9247C63.2761 15.4796 64.1149 13.0259 64.9762 10.5085C62.8889 10.5085 60.8849 10.3915 58.9035 10.5446C57.2138 10.6754 55.9323 11.5805 55.3887 13.2926C55.1126 14.165 54.8 15.0271 54.5083 15.8943C53.8085 17.9781 53.8085 17.9247 51.6013 18.0039C50.6184 18.04 50.1096 17.775 49.7658 16.82C49.2118 15.2783 48.479 13.7985 47.7896 12.2171C48.7621 12.2171 49.6008 12.2395 50.4378 12.212C52.421 12.1483 53.607 11.2501 54.2061 9.39519C54.3902 8.82219 54.576 8.25092 54.7584 7.67792C55.3714 5.75761 54.6455 4.73379 52.6242 4.72346C49.6738 4.70798 46.7216 4.7183 43.7695 4.7183C41.3436 4.7183 41.3609 4.72174 40.7861 7.07911C40.6715 7.55059 40.7705 7.65211 41.2064 7.57984C41.8472 7.47316 41.7569 7.80869 41.6301 8.22683C40.6976 11.2931 39.7668 14.3594 38.8638 17.4326C38.7318 17.8817 38.5755 18.1484 38.0546 18.0607C37.7541 18.0108 37.4902 18.0538 37.3981 18.4341C37.2384 19.0948 37.0456 19.747 36.8425 20.4903C38.0164 20.4903 39.1121 20.4903 40.2079 20.4903C41.8072 20.4903 41.7708 20.4783 42.3039 18.9933C42.5557 18.293 42.6338 17.8525 41.5884 18.0159C42.1059 16.3021 42.6043 14.6606 43.0992 13.019C43.2121 12.6439 43.2364 12.2447 43.8129 12.2171C44.3808 12.1879 44.6899 12.36 44.9486 12.8813C46.1034 15.2198 47.319 17.529 48.4842 19.8623C48.7048 20.3045 48.9531 20.4886 49.4689 20.4869C55.1404 20.4679 60.8102 20.4679 66.4818 20.4834C66.9836 20.4851 67.166 20.3268 67.2875 19.8416C67.7616 17.9557 68.2965 16.0853 68.807 14.208C69.2238 12.6766 69.222 12.6766 70.8283 12.7127C71.8321 12.7351 71.9606 12.871 71.7088 13.8363C71.2034 15.7739 70.7033 17.7148 70.1285 19.6334C69.9166 20.3372 70.0347 20.5006 70.7762 20.4903C73.7266 20.4525 76.6787 20.4714 79.6291 20.4817C79.867 20.4817 80.3029 20.3595 80.3098 20.6211C80.3237 21.1511 80.2057 21.7034 80.0424 22.2162C79.9174 22.6119 79.4954 22.433 79.2019 22.433C76.1647 22.433 73.1258 22.4106 70.0886 22.4106C59.3533 22.4072 48.6197 22.4089 37.8844 22.4089C36.252 22.4089 36.2989 22.4244 35.7988 23.973C35.5591 24.7164 35.7641 24.8076 36.4517 24.8058C41.8038 24.7904 47.1575 24.8127 52.5095 24.8144C62.1734 24.8179 71.8373 24.8093 81.5011 24.8299C82.161 24.8317 82.4892 24.6854 82.6194 24.0023C82.7792 23.1626 83.1335 22.359 83.2845 21.5193C83.4322 20.6951 83.7934 20.4525 84.6564 20.4559C95.9978 20.4903 107.341 20.4731 118.682 20.4938C119.318 20.4955 119.57 20.3131 119.729 19.7039C120.198 17.9041 120.749 16.1266 121.259 14.3388C121.612 13.1033 121.607 13.1016 122.909 13.1171C124.111 13.1308 124.192 13.241 123.887 14.4351C123.378 16.4243 122.869 18.4117 122.334 20.5006C125.811 20.5006 129.2 20.5006 132.616 20.5006C132.028 22.371 132.028 22.3728 130.246 22.3728C118.123 22.3728 105.999 22.3728 93.8757 22.3728C92.1496 22.3728 92.1756 22.3814 91.712 24.0711C91.5453 24.6768 91.6304 24.8317 92.2955 24.8317C106.212 24.8231 120.129 24.8334 134.047 24.8592C134.629 24.8609 134.827 24.6527 134.973 24.1296C135.695 21.5382 136.464 18.9606 137.211 16.3778C137.772 14.4386 138.323 12.4959 138.88 10.5515C138.748 10.5222 138.692 10.4982 138.635 10.4982ZM47.0238 9.79267C46.2128 9.79267 45.4036 9.78407 44.5944 9.79611C44.2436 9.80127 44.0943 9.70319 44.2679 9.35217C44.2801 9.32636 44.287 9.29883 44.294 9.2713C44.8132 7.42326 44.8132 7.42325 46.7512 7.42325C47.734 7.42325 48.7187 7.39916 49.7015 7.43186C50.2937 7.45251 51.089 7.26151 51.2314 8.11842C51.3426 8.78434 50.351 9.75309 49.6269 9.78235C48.7603 9.81676 47.8921 9.79095 47.0238 9.79095C47.0238 9.78923 47.0238 9.79095 47.0238 9.79267ZM60.93 14.1254C60.6105 15.1923 60.2545 16.2488 59.9906 17.3294C59.8673 17.8318 59.6398 17.9695 59.1588 17.9471C58.4728 17.9144 57.7852 17.9385 57.0159 17.9385C57.4049 16.4914 57.7331 15.1337 58.1411 13.8019C58.386 13.0035 59.0685 12.7884 59.8551 12.7764C61.3451 12.7557 61.3433 12.7437 60.93 14.1254ZM82.4632 14.3285C82.1888 15.2594 81.8762 16.1817 81.6522 17.1263C81.482 17.8439 81.1642 18.2345 80.3672 18.0676C80.1744 18.0263 79.9643 18.0624 79.7628 18.0624C78.1044 18.0624 78.1044 18.0624 78.5143 16.5069C78.681 15.8719 78.839 15.2335 79.0196 14.602C79.3912 13.3046 79.9487 12.8779 81.3032 12.8246C82.9268 12.7609 82.9268 12.7609 82.4632 14.3285ZM104.377 8.90823C103.618 11.6011 102.805 14.2803 102.031 16.968C101.81 17.732 101.237 18.009 100.537 18.0314C99.2434 18.071 97.9462 18.0435 96.576 18.0435C96.9998 16.5 97.4148 15.0185 97.8107 13.5352C97.901 13.1945 98.1372 13.1584 98.4046 13.1962C98.9273 13.2685 99.1183 13.0121 99.2 12.5424C99.2798 12.095 99.3979 11.6476 99.5612 11.2226C99.7956 10.6066 99.8355 10.1609 98.8492 10.314C99.1427 9.421 99.424 8.62087 99.6636 7.80869C99.7574 7.49208 99.9363 7.41981 100.23 7.42325C101.24 7.43358 102.251 7.40261 103.26 7.44046C104.25 7.47316 104.642 7.96528 104.377 8.90823ZM113.539 14.0721C113.129 15.2628 112.717 16.4518 112.273 17.6288C111.972 18.4255 111.248 17.837 110.83 18.0331C109.341 18.0331 109.345 18.0349 109.744 16.6996C109.991 15.8771 110.208 15.0477 110.474 14.2321C110.793 13.2513 112.483 12.6731 113.353 13.2272C113.693 13.444 113.643 13.7727 113.539 14.0721ZM134.731 13.5283C134.256 14.9376 133.828 16.3675 133.283 17.7492C133.03 18.3928 132.328 17.8318 131.989 18.0331C130.461 18.0314 130.459 18.0314 130.822 16.6669C130.977 16.087 131.138 15.5089 131.3 14.9307C131.715 13.4578 133.075 12.7213 134.54 13.1567C134.777 13.2255 134.794 13.339 134.731 13.5283Z" fill="#ED1C24"/>
<path d="M31.7144 14.2062C28.8683 14.392 26.0203 14.5434 23.1759 14.7052C23.3356 14.5262 23.5562 14.4746 23.7767 14.4006C26.2322 13.5643 28.679 12.704 31.1379 11.8832C31.6467 11.7146 31.7735 11.5167 31.5425 11.0263C31.19 10.2761 30.874 9.50519 30.5735 8.73259C30.4086 8.30586 30.2019 8.25595 29.8025 8.46416C28.8318 8.97177 27.842 9.44152 26.8556 9.9216C25.3674 10.646 23.8757 11.367 22.3545 12.1035C22.3441 11.983 22.3319 11.9503 22.3406 11.9417C24.0754 10.3845 25.8067 8.82379 27.5485 7.27515C28.9811 6.00183 28.9863 6.00699 27.6318 4.65107C26.3277 3.34505 26.3294 3.34505 25.1399 4.69753C24.9506 4.91434 24.7544 5.12427 24.5616 5.33763C23.1463 6.91552 21.7311 8.49341 20.3158 10.0713C21.4167 7.52637 22.6115 5.05716 23.834 2.60171C24.0563 2.15605 24.0841 1.89622 23.5353 1.70522C22.773 1.44023 22.0315 1.12018 21.2882 0.80529C20.8749 0.629778 20.611 0.621175 20.453 1.14599C20.1734 2.07517 19.8209 2.98371 19.4979 3.90084C18.904 5.58714 18.3101 7.27343 17.7162 8.95972C17.6033 8.53643 17.6207 8.14583 17.645 7.75351C17.7908 5.43744 17.9228 3.12136 18.1 0.807011C18.1468 0.201322 17.9558 -0.0189286 17.3515 0.00344056C16.6031 0.0344133 15.8494 0.0344133 15.0992 0.00171985C14.4324 -0.0275322 14.2987 0.232295 14.3508 0.874119C14.5765 3.63413 14.738 6.39931 14.9238 9.17481C14.6911 9.01995 14.6616 8.78593 14.5869 8.57084C13.7482 6.16702 12.8799 3.77179 12.0811 1.3542C11.864 0.696886 11.6053 0.56095 10.9905 0.856912C10.3411 1.17008 9.66556 1.42819 8.99005 1.67597C8.4934 1.85836 8.32843 2.04764 8.62885 2.59138C9.25227 3.71845 9.78712 4.89541 10.3602 6.05173C10.9871 7.31989 11.6157 8.58977 12.2912 9.95429C11.8762 9.82696 11.7494 9.59467 11.581 9.40711C9.90521 7.54874 8.21902 5.7007 6.56062 3.82685C6.26194 3.48959 6.0605 3.43109 5.74271 3.76491C5.16792 4.36888 4.58791 4.9694 3.9836 5.54412C3.54599 5.96053 3.68665 6.24101 4.09821 6.56966C4.68342 7.03597 5.23043 7.54874 5.79134 8.04431C7.25003 9.33484 8.70699 10.6271 10.164 11.9176C9.79754 11.9434 9.51796 11.8264 9.24532 11.6939C7.0677 10.6374 4.88139 9.59467 2.71939 8.5089C2.24879 8.27316 2.02478 8.28521 1.83723 8.7997C1.56112 9.55337 1.23986 10.2898 0.920334 11.0246C0.729314 11.4651 0.732787 11.749 1.30585 11.878C1.83723 11.9968 2.3443 12.2222 2.86353 12.3977C4.95085 13.1049 7.03817 13.8104 9.1255 14.5159C9.11508 14.5761 9.10292 14.6346 9.0925 14.6948C6.97219 14.5658 4.85187 14.4333 2.73155 14.3111C-0.123328 14.1459 -0.107699 14.1477 0.0607453 17.0367C0.0937397 17.6028 0.27955 17.7422 0.83177 17.7405C11.1034 17.725 21.3733 17.725 31.645 17.7371C32.1329 17.7371 32.3952 17.6717 32.3622 17.0987C32.3188 16.3278 32.3292 15.55 32.3674 14.7792C32.3917 14.2681 32.2007 14.1752 31.7144 14.2062Z" fill="#ED1C25"/>
<path d="M14.7572 31.9207C20.4878 32.4455 25.1799 30.3376 28.9361 25.7881C20.3888 25.7881 12.0169 25.7881 3.4436 25.7881C6.25507 29.8163 10.2144 31.5043 14.7572 31.9207Z" fill="#ED1C25"/>
<path d="M28.191 22.2677C28.1841 22.2952 28.1771 22.3227 28.1719 22.352C28.1111 22.6927 27.8506 22.7839 27.5919 22.6806C27.3106 22.5688 27.5311 22.3416 27.5884 22.173C27.6961 21.8478 27.8281 21.5295 27.9375 21.2043C28.0121 20.9823 28.0503 20.7552 27.8611 20.5607C27.4495 20.1391 25.93 20.4093 25.706 20.9462C25.4976 21.4486 25.2892 21.9493 25.1052 22.4604C24.9923 22.7735 24.7474 22.7512 24.5443 22.6703C24.3012 22.5722 24.5113 22.3778 24.5547 22.2487C24.6901 21.8426 24.8759 21.4538 25.0114 21.0477C25.1347 20.6777 25.001 20.4644 24.5825 20.3938C23.4103 20.1976 22.9293 20.4437 22.4934 21.5191C22.3857 21.7841 22.2729 22.0491 22.1878 22.321C22.0627 22.7133 21.8179 22.7907 21.4168 22.6187C21.7971 21.6362 22.1878 20.6588 22.549 19.6711C22.7209 19.1979 22.7331 18.6783 22.0853 18.6198C21.2535 18.5423 20.4078 18.5681 19.5708 18.6043C19.0811 18.6249 18.9491 19.1188 19.1141 19.3837C19.4527 19.9258 19.2322 20.1718 18.7946 20.3972C18.4716 20.5642 18.3309 20.8119 18.4403 21.1492C18.7581 22.1248 18.3344 22.734 17.3185 22.734C16.9139 22.734 16.5075 22.7168 16.1047 22.734C15.674 22.7529 15.6167 22.5825 15.7591 22.2178C15.9762 21.6637 16.1637 21.0959 16.3669 20.5246C14.2761 20.1495 13.9323 20.3164 13.3036 21.8358C13.1699 22.161 13.1908 22.8665 12.6924 22.6686C12.2391 22.4862 12.7913 22.0044 12.8434 21.6448C12.9025 21.2352 13.3957 20.7724 12.734 20.4626C12.0637 20.1495 10.8412 20.473 10.6398 20.9754C10.4592 21.4262 10.2786 21.8788 10.1258 22.3399C10.0285 22.6324 9.85312 22.8217 9.55964 22.7064C9.20365 22.5671 9.48844 22.3244 9.55096 22.1403C9.67946 21.7618 9.81491 21.3815 9.98683 21.0219C10.1865 20.602 10.1605 20.411 9.61347 20.411C7.77968 20.4093 7.65118 20.4179 7.05728 22.1679C6.90968 22.6032 6.67872 22.7133 6.23937 22.7219C5.78961 22.7305 5.72709 22.4552 5.62984 22.1592C5.54996 21.9149 5.49266 21.662 5.39888 21.4228C5.2808 21.1165 5.2999 20.9324 5.69931 20.9513C6.70824 20.9995 7.09896 20.3594 7.36812 19.5266C7.57824 18.8744 7.36812 18.5939 6.70824 18.5905C5.86949 18.5853 5.02553 18.6421 4.19372 18.575C3.48695 18.5182 3.39144 19.0052 3.39665 19.4233C3.41575 20.7362 2.95036 21.8461 2.17065 22.8647C2.03346 23.0437 1.82682 23.3465 2.01436 23.4721C2.34778 23.6941 2.79754 23.5978 3.18132 23.5358C3.45917 23.4911 3.56857 23.1607 3.4939 22.9181C3.30114 22.2917 3.7509 21.8392 3.86378 21.2989C3.89504 21.1492 3.9645 21.0305 4.13294 21.0081C4.3778 20.9771 4.40732 21.1922 4.46636 21.3333C4.69906 21.8874 4.93002 22.4432 5.12277 23.011C5.2617 23.4222 5.48571 23.5857 5.94068 23.5754C7.29692 23.5461 8.6549 23.5444 10.0111 23.5771C10.4765 23.5892 10.678 23.4205 10.7926 22.9972C10.935 22.4741 11.1538 21.9717 11.3014 21.4486C11.4038 21.0855 11.6661 21.1182 11.9161 21.163C12.3398 21.2387 12.0724 21.5054 12.0238 21.6861C11.9179 22.0715 11.8241 22.469 11.6539 22.8269C11.3361 23.4928 11.6209 23.6029 12.227 23.5599C12.774 23.522 13.3262 23.5393 13.8749 23.5599C14.0382 23.5651 14.3265 23.4257 14.3334 23.7612C14.3403 24.0692 14.1059 24.114 13.8524 24.1071C13.6492 24.1019 13.4478 24.1071 13.2446 24.1071C9.83228 24.1071 6.41823 24.1054 3.00593 24.114C2.80102 24.114 2.54748 23.9866 2.38946 24.2258C2.57006 24.7713 2.96251 24.859 3.48174 24.8573C7.0677 24.8401 10.6537 24.8418 14.2396 24.8659C14.7224 24.8694 15.0367 24.7627 15.0975 24.2774C15.1808 23.6046 15.5889 23.5186 16.1828 23.5255C18.6695 23.553 21.158 23.5375 23.6447 23.5375C25.5897 23.5375 25.5897 23.5375 26.2496 21.7669C26.2687 21.7136 26.2773 21.6551 26.2964 21.6017C26.3902 21.3281 26.5517 21.1389 26.873 21.2404C27.2411 21.3557 27.0327 21.6069 26.9754 21.8031C26.8157 22.3485 26.6403 22.8906 26.4371 23.5393C27.3314 23.5393 28.1111 23.5324 28.8926 23.5461C29.0332 23.5479 29.2798 23.4481 29.2833 23.7165C29.285 23.923 29.1826 24.1002 28.9151 24.0916C28.6842 24.0847 28.4532 24.095 28.2205 24.095C24.8951 24.095 21.5678 24.0968 18.2424 24.0916C17.8916 24.0916 17.5877 24.1209 17.572 24.5562C17.5564 25.0087 17.9263 24.8556 18.1382 24.8556C21.8683 24.8608 25.5984 24.8504 29.3284 24.8487C29.6341 24.8487 29.8807 24.8298 30.0022 24.4736C30.4537 23.1538 30.9278 21.8409 31.3984 20.5074C28.804 20.2475 28.6807 20.4506 28.191 22.2677ZM4.35001 20.1391C4.51151 19.5438 5.77224 19.1342 6.20464 19.4767C6.31925 19.5679 6.31057 19.6745 6.26368 19.7726C6.17512 19.955 6.05009 20.1116 5.82086 20.1305C5.73577 20.1374 5.64895 20.1391 5.56212 20.1391C5.16098 20.1391 4.76331 20.1391 4.35001 20.1391ZM8.8546 21.7446C8.68095 22.1902 8.71742 22.9387 7.73801 22.6152C7.87172 22.2178 7.97939 21.834 8.12699 21.4675C8.25029 21.1612 8.53161 21.027 8.83203 21.1268C9.27311 21.2731 8.91886 21.5811 8.8546 21.7446ZM15.0593 21.7394C14.7588 22.7322 14.7571 22.7305 13.7829 22.641C13.9705 22.1696 14.1007 21.7618 14.2917 21.3832C14.4428 21.0838 14.7918 21.0287 15.0471 21.1406C15.3354 21.2645 15.1218 21.5364 15.0593 21.7394ZM19.121 22.6445C19.4093 22.0543 19.3572 21.4193 19.9459 21.0322C20.0987 20.9324 20.1543 20.5796 20.0883 20.2544C20.0084 19.8655 20.1109 19.4268 20.743 19.4233C21.6008 19.4199 21.7015 19.5214 21.4272 20.3456C21.2917 20.75 21.1528 21.1544 21.0121 21.557C20.5832 22.7753 20.5832 22.7753 19.121 22.6445ZM23.9834 21.7824C23.7646 22.2436 23.7576 23.011 22.8286 22.6256C22.9623 22.2384 23.0804 21.8358 23.2419 21.4503C23.3599 21.1664 23.6378 21.1131 23.8965 21.2077C24.2195 21.3264 24.0685 21.6 23.9834 21.7824ZM30.0005 21.7979C29.8043 22.2436 29.806 22.9473 28.8926 22.629C29.0228 22.2109 29.0697 21.7807 29.3475 21.4469C29.4952 21.2679 29.7278 21.1371 29.9519 21.2283C30.2731 21.3574 30.0821 21.6138 30.0005 21.7979Z" fill="#EC1C25"/>
<path d="M114.292 9.5481C114.528 9.54121 114.989 9.74426 114.954 9.31064C114.924 8.93725 114.815 8.42447 114.376 8.27649C113.17 7.86869 112.115 8.33156 111.55 9.55842C112.531 9.55842 113.414 9.57391 114.292 9.5481Z" fill="#ED252C"/>
<path d="M57.3094 21.7878C57.714 21.7861 58.1203 21.7895 58.525 21.7861C58.7611 21.7844 58.8966 21.6725 58.9192 21.4265C58.9365 21.2286 58.8948 21.0634 58.6726 21.0617C57.8043 21.0531 56.9378 21.0548 56.0695 21.0651C55.7916 21.0685 55.7795 21.2905 55.7656 21.497C55.75 21.7327 55.908 21.7878 56.0938 21.7895C56.4984 21.793 56.903 21.7895 57.3094 21.7878Z" fill="#EF3C42"/>
<path d="M23.5927 20.0824C23.9278 20.0824 24.2265 20.0824 24.6537 20.0824C24.1292 19.6058 24.0598 19.6075 23.5927 20.0824Z" fill="#EE3539"/>
</g>
<defs>
<clipPath id="clip0_151_2368">
<rect width="138.88" height="32" fill="white"/>
</clipPath>
</defs>
</svg>
