<svg width="221" height="79" viewBox="0 0 221 79" fill="none" xmlns="http://www.w3.org/2000/svg">
<g clip-path="url(#clip0_151_2260)">
<path d="M198.873 15.6722C196.905 15.6722 194.937 15.6722 192.943 15.6722C192.517 15.6722 192.411 15.7788 192.411 16.2053C192.411 19.6435 192.411 23.0818 192.411 26.52C192.411 26.9198 192.304 27.1064 191.879 27.1864C187.438 27.906 183.262 29.292 179.273 31.3709C178.794 31.6375 178.715 31.3176 178.608 31.0244C175.311 22.682 176.295 14.8726 181.986 7.91613C186.507 2.39892 192.517 -0.186437 199.618 0.000134877C210.282 0.29332 219.191 8.31593 220.734 18.8439C221.372 23.0818 220.787 27.1864 219.085 31.131C218.926 31.4775 218.793 31.5308 218.447 31.3443C214.484 29.2653 210.282 27.8794 205.841 27.1597C205.416 27.0798 205.309 26.9198 205.309 26.4934C205.309 23.0818 205.309 19.6435 205.309 16.2319C205.309 15.7522 205.176 15.6455 204.697 15.6455C202.756 15.6722 200.788 15.6455 198.82 15.6455" fill="#2A578F"/>
<path d="M110.367 40.0862C112.308 40.7525 113.718 41.872 114.409 43.791C115.978 48.1355 113.824 52.6132 109.463 54.1058C108.133 54.5589 106.777 54.7988 105.394 54.7988C101.857 54.7988 98.3463 54.7988 94.8093 54.7988C94.304 54.7988 94.3306 54.5322 94.3306 54.1857V42.8848C94.3306 37.9006 94.3306 32.9165 94.3306 27.9324C94.3306 27.4526 94.4635 27.3193 94.9422 27.3193C98.3197 27.3193 101.697 27.3193 105.075 27.3193C107.202 27.3193 109.197 27.8257 110.979 29.1051C114.276 31.4772 114.383 36.8878 111.644 39.1267C111.271 39.4199 110.872 39.6864 110.42 40.0329M100.74 46.403C100.74 47.3359 100.74 48.2954 100.74 49.2282C100.74 49.5747 100.846 49.6813 101.192 49.6813C102.761 49.6813 104.33 49.6813 105.899 49.6813C107.734 49.6813 109.144 48.2687 109.17 46.4563C109.197 44.6706 107.814 43.2313 106.006 43.2046C104.41 43.178 102.788 43.2046 101.165 43.2046C100.793 43.2046 100.713 43.3379 100.74 43.6844C100.74 44.6172 100.74 45.5235 100.74 46.4563M103.08 32.4634C102.442 32.4634 101.777 32.4634 101.139 32.4634C100.873 32.4634 100.766 32.5434 100.766 32.8099C100.766 34.4624 100.766 36.1149 100.766 37.7674C100.766 38.0339 100.846 38.1405 101.139 38.1405C102.415 38.1405 103.718 38.1672 104.995 38.1405C106.67 38.0606 107.92 36.7812 107.894 35.2886C107.894 33.6894 106.591 32.5167 104.862 32.4634C104.277 32.4634 103.718 32.4634 103.133 32.4634" fill="#2A578F"/>
<path d="M198.847 44.1911C191.241 44.0312 185.151 40.9128 180.683 34.7026C180.39 34.3028 180.497 34.1696 180.895 33.983C185.762 31.5042 190.922 30.0916 196.373 29.7451C203.581 29.292 210.415 30.7313 216.851 33.9563C217.277 34.1696 217.356 34.3561 217.037 34.7559C213.048 40.2731 207.703 43.4182 200.974 44.1645C200.868 44.1645 200.735 44.1645 200.629 44.1645H198.847" fill="#C63456"/>
<path d="M13.643 44.7505C14.6536 42.1385 15.6376 39.6598 16.6216 37.2077C17.8449 34.0892 19.0683 30.9442 20.2916 27.8257C20.4246 27.4793 20.5842 27.346 20.9565 27.346C22.5787 27.346 24.1744 27.346 25.7967 27.346C26.2488 27.346 26.1956 27.4793 26.0892 27.7991C23.8287 33.5562 21.5682 39.3133 19.3076 45.0437C18.4566 47.2026 17.6056 49.3615 16.7811 51.5204C15.9301 53.7326 14.3876 54.7988 12.0207 54.7988C10.691 54.7988 10.691 54.7988 10.1857 53.5461C6.80822 44.9904 3.45732 36.4347 0.0798254 27.8791C-0.106336 27.3993 -0.0265524 27.3193 0.478742 27.3193C2.42014 27.3193 4.36153 27.3193 6.27634 27.3193C6.72844 27.3193 6.9146 27.4793 7.04757 27.8791C9.20173 33.4496 11.4091 39.0201 13.643 44.7505Z" fill="#2A578F"/>
<path d="M130.658 53.4131C129.621 54.7458 128.159 55.2255 126.59 55.3854C120.34 55.9718 116.75 51.3075 116.351 46.5632C116.138 43.8446 116.59 41.2859 118.212 39.0204C120.553 35.742 124.728 34.3561 128.345 35.6621C129.409 36.0352 130.313 36.6216 130.951 37.5811C131.004 37.6611 131.111 37.741 131.19 37.821C131.456 37.4212 131.563 36.9947 131.377 36.515C131.297 36.2218 131.403 36.0086 131.749 36.0086C133.238 36.0086 134.701 36.0086 136.19 36.0086C136.429 36.0086 136.695 36.0885 136.642 36.4084C136.562 36.7016 136.669 36.9681 136.669 37.2613C136.669 42.512 136.669 47.736 136.642 52.9866C136.642 53.5997 136.749 54.2927 136.217 54.7991H132.52C132.52 54.7991 132.494 54.6925 132.467 54.6925C131.536 54.7458 131.217 54.3193 131.43 53.3864C131.483 53.1466 131.323 52.6668 130.898 52.7201C130.499 52.7734 130.738 53.1999 130.658 53.4398M126.59 50.1348C129.302 50.1348 131.164 48.0825 131.137 45.1773C131.111 42.4853 129.143 40.4863 126.483 40.513C123.957 40.513 122.015 42.6452 122.042 45.4172C122.042 48.0825 124.036 50.1614 126.59 50.1348Z" fill="#2A578F"/>
<path d="M165.737 42.5386C166.481 41.739 167.12 41.0194 167.758 40.3264C169.008 38.9404 170.231 37.5544 171.481 36.1685C171.641 36.0086 171.774 35.822 172.04 35.822C174.274 35.822 176.481 35.822 178.741 35.822C178.715 36.1152 178.502 36.2218 178.343 36.3817C176.055 38.8071 173.768 41.2059 171.481 43.6047C171.073 44.0312 171.047 44.4754 171.401 44.9374C173.742 48.0291 176.109 51.1209 178.449 54.2127C178.555 54.3726 178.741 54.5059 178.768 54.799H175.204C174.593 54.799 173.954 54.7191 173.369 54.799C171.854 55.0656 171.029 54.3992 170.284 53.1465C168.981 50.961 167.465 48.882 166.029 46.7764C165.976 46.6698 165.923 46.5366 165.71 46.4833V47.7893C165.71 49.9482 165.71 52.1071 165.71 54.2393C165.71 54.7191 165.551 54.799 165.125 54.799C163.583 54.799 162.014 54.7724 160.471 54.799C159.992 54.799 159.913 54.6658 159.913 54.2127C159.913 45.4171 159.913 36.5949 159.913 27.7994C159.913 27.3996 160.019 27.293 160.418 27.293C163.556 27.293 165.71 29.3986 165.737 32.5436V42.5652V42.5386Z" fill="#2A578F"/>
<path d="M43.7212 47.043H37.3385C36.5673 47.043 36.5407 47.0697 36.7535 47.816C37.2853 49.5484 38.4289 50.6945 40.2107 51.0676C42.0192 51.4408 43.5616 50.8278 44.6786 49.3885C45.0243 48.962 45.3435 48.8021 45.8488 48.8021C47.2051 48.8288 48.5614 48.8288 49.9443 48.8021C50.3698 48.8021 50.3964 48.9087 50.2368 49.2552C48.5614 53.0666 44.7584 55.8386 39.865 55.2788C35.8492 54.7991 31.5675 51.3342 31.3016 45.8703C31.0356 40.8595 34.227 36.5417 38.9342 35.4489C44.7052 34.0896 50.5028 38.2741 51.0081 44.1911C51.0613 44.9641 51.0347 45.737 51.0081 46.4833C50.9815 46.9097 50.8485 47.043 50.423 47.0164C48.1891 47.0164 45.9817 47.0164 43.7478 47.0164M41.1415 43.205C42.4713 43.205 43.8276 43.205 45.1573 43.205C45.5296 43.205 45.5562 43.0983 45.4764 42.7785C45.0243 40.9394 43.1893 39.5268 41.2479 39.5002C39.2001 39.5002 37.3651 40.8328 36.8598 42.7252C36.7535 43.125 36.8598 43.205 37.2587 43.205C38.5619 43.205 39.865 43.205 41.1681 43.205" fill="#2A578F"/>
<path d="M144.887 37.9276C146.403 36.1152 148.184 35.209 150.392 35.209C154.035 35.209 157.094 38.1941 157.12 41.8723C157.147 46.0568 157.12 50.2147 157.12 54.3993C157.12 54.7724 156.987 54.8524 156.642 54.8257C155.099 54.8257 153.53 54.8257 151.987 54.8257C151.535 54.8257 151.429 54.6925 151.429 54.2394C151.429 50.6412 151.429 47.043 151.429 43.4448C151.429 42.1921 150.924 41.1793 149.78 40.5929C148.663 40.0332 147.546 40.1132 146.509 40.8328C145.605 41.4725 145.259 42.3787 145.259 43.4715C145.259 47.0163 145.259 50.5346 145.259 54.0794C145.259 54.6658 145.099 54.8257 144.541 54.7991C143.052 54.7724 141.562 54.7724 140.047 54.7991C139.674 54.7991 139.541 54.7191 139.541 54.3193C139.541 48.3223 139.541 42.3254 139.541 36.3284C139.541 35.9819 139.621 35.822 140.02 35.822C141.483 35.822 142.945 35.822 144.408 35.822C144.754 35.822 144.887 35.902 144.86 36.2751C144.834 36.7815 144.86 37.2613 144.86 37.901" fill="#2A578F"/>
<path d="M79.2781 37.901C80.0228 36.9948 80.794 36.3818 81.6716 35.902C86.0863 33.6631 91.4584 36.8882 91.485 41.8723C91.5116 46.0035 91.485 50.1348 91.485 54.2927C91.485 54.7458 91.3254 54.8257 90.9265 54.8257C89.4106 54.8257 87.8947 54.8257 86.3788 54.8257C85.9267 54.8257 85.7937 54.7191 85.7937 54.266C85.7937 50.6412 85.7937 47.043 85.7937 43.4182C85.7937 42.0322 84.9959 40.9128 83.7992 40.4597C82.5226 40.0066 81.0865 40.3797 80.3153 41.3925C79.81 42.0056 79.6238 42.7519 79.6238 43.5248C79.6238 47.0697 79.6238 50.6412 79.6238 54.2127C79.6238 54.6925 79.5175 54.8257 79.0122 54.8257C77.4697 54.7991 75.9538 54.8257 74.4113 54.8257C74.039 54.8257 73.9326 54.7191 73.9326 54.346C73.9326 48.349 73.9326 42.3521 73.9326 36.3551C73.9326 35.982 74.039 35.8753 74.4113 35.8753C75.874 35.8753 77.3367 35.8753 78.7728 35.8753C79.1185 35.8753 79.2515 35.982 79.2249 36.3284C79.2249 36.8082 79.2249 37.288 79.2249 37.9276" fill="#2A578F"/>
<path d="M54.7048 44.6972C54.7048 43.3645 54.7048 42.0319 54.7048 40.7259C54.7048 40.3794 54.5984 40.2461 54.2526 40.2728C53.6144 40.2728 52.9495 40.2728 52.2847 40.2728C51.9921 40.2728 51.8857 40.1928 51.8857 39.873C51.8857 38.6736 51.8857 37.4475 51.8857 36.2481C51.8857 35.9016 52.0187 35.8217 52.3113 35.8217C52.9495 35.8217 53.5878 35.8217 54.2261 35.8217C54.625 35.8217 54.7048 35.6884 54.7048 35.3153C54.7048 34.0892 54.7048 32.8632 54.7048 31.6371C54.7048 31.264 54.7579 31.0774 55.2101 31.1041C56.7791 31.1307 58.3216 31.1041 59.8641 31.1041C60.2364 31.1041 60.3162 31.2107 60.3162 31.5572C60.3162 32.7566 60.3162 33.9826 60.3162 35.182C60.3162 35.7417 60.4758 35.8483 60.981 35.8217C61.6193 35.795 62.2842 35.8217 62.949 35.8217C63.2682 35.8217 63.4011 35.9016 63.3745 36.2481C63.3745 37.4475 63.3745 38.6736 63.3745 39.873C63.3745 40.2195 63.2416 40.2728 62.9224 40.2728C62.2044 40.2728 61.4863 40.2728 60.7949 40.2728C60.4492 40.2728 60.3162 40.3527 60.3162 40.7525C60.3162 42.8848 60.3162 45.017 60.3162 47.1493C60.3162 48.6952 61.4066 49.7879 62.949 49.8412C63.2682 49.8412 63.3745 49.8946 63.3745 50.241C63.3745 51.6004 63.3745 52.9597 63.3745 54.3456C63.3745 54.5322 63.4543 54.7721 63.1086 54.7987C61.38 54.8787 59.6779 54.932 58.1354 53.9991C56.0079 52.7464 54.8643 50.8807 54.7579 48.402C54.7048 47.1759 54.7579 45.9499 54.7579 44.6972H54.7048Z" fill="#2A578F"/>
<path d="M29.1742 45.3372C29.1742 48.2957 29.1742 51.2542 29.1742 54.2127C29.1742 54.6658 29.0678 54.799 28.6157 54.799C27.0998 54.7724 25.5839 54.799 24.068 54.799C23.6957 54.799 23.5627 54.6924 23.5627 54.3193C23.5627 49.7616 23.5627 45.2039 23.5627 40.6462C23.5627 37.9276 26.0094 35.6887 28.7487 35.7687C29.1476 35.7687 29.1742 35.9553 29.1742 36.2751C29.1742 37.7943 29.1742 39.3135 29.1742 40.8328V45.3372Z" fill="#2A578F"/>
<path d="M71.1403 45.3106C71.1403 48.2957 71.1403 51.2809 71.1403 54.2661C71.1403 54.6925 71.0605 54.8258 70.6084 54.8258C69.0925 54.7991 67.5766 54.8258 66.0607 54.8258C65.6884 54.8258 65.582 54.7192 65.582 54.346C65.582 49.8416 65.582 45.3372 65.582 40.8329C65.582 37.981 67.7894 35.8487 70.635 35.7954C71.0605 35.7954 71.1935 35.9553 71.1403 36.3285V45.3372V45.3106Z" fill="#2A578F"/>
<path d="M96.804 72.5234C96.804 70.631 96.804 68.7386 96.804 66.8463C96.804 66.4198 96.9369 66.3398 97.3358 66.3398C99.49 66.3398 101.671 66.3398 103.825 66.3398C104.277 66.3398 104.41 66.4731 104.357 66.8996C104.33 67.3527 104.357 67.8058 104.357 68.2322C104.357 68.6054 104.25 68.712 103.878 68.712C102.495 68.712 101.139 68.712 99.7559 68.712C99.3038 68.712 99.1709 68.8186 99.1975 69.2717C99.224 69.7781 99.224 70.2845 99.1975 70.7643C99.1709 71.2174 99.2772 71.3773 99.7825 71.3773C100.979 71.3506 102.176 71.3773 103.399 71.3773C103.825 71.3773 103.958 71.5106 103.931 71.9104C103.905 72.3635 103.905 72.8166 103.931 73.243C103.931 73.6162 103.798 73.6961 103.479 73.6695C102.229 73.6695 100.979 73.6695 99.7559 73.6695C99.3304 73.6695 99.1975 73.8027 99.2241 74.2025C99.2506 74.7356 99.2506 75.2687 99.2241 75.8284C99.1975 76.3081 99.3038 76.4681 99.8357 76.4414C101.219 76.3881 102.575 76.4414 103.958 76.4414C104.33 76.4414 104.49 76.5214 104.463 76.9212C104.437 77.4276 104.463 77.9073 104.463 78.4137C104.463 78.7069 104.357 78.7869 104.064 78.7869C101.777 78.7869 99.5166 78.7869 97.2295 78.7869C96.8571 78.7869 96.804 78.627 96.804 78.3338C96.804 76.4147 96.804 74.4957 96.804 72.5767" fill="#2A578F"/>
<path d="M139.701 78.7334C138.823 78.7334 138.052 78.7334 137.307 78.7334C137.015 78.7334 136.935 78.5201 136.829 78.3336C136.164 77.2141 135.499 76.0947 134.887 74.9486C134.674 74.5488 134.435 74.3889 133.983 74.4156C132.733 74.4422 132.733 74.4156 132.733 75.6683C132.733 76.5478 132.733 77.4274 132.733 78.2803C132.733 78.6268 132.653 78.76 132.307 78.7334C131.802 78.7067 131.297 78.7067 130.792 78.7334C130.366 78.76 130.26 78.6268 130.286 78.2003C130.286 75.5616 130.286 72.8963 130.286 70.231C130.286 69.0849 130.286 67.9388 130.286 66.7661C130.286 66.4196 130.393 66.313 130.712 66.313C132.228 66.313 133.744 66.313 135.286 66.313C137.121 66.313 138.717 67.539 139.195 69.2981C139.674 71.0573 138.983 72.8164 137.36 73.8025C137.015 74.0158 137.015 74.149 137.201 74.4689C138.025 75.8282 138.823 77.2141 139.674 78.6801M132.706 70.3909C132.706 70.8973 132.706 71.4037 132.706 71.8835C132.706 72.0967 132.76 72.23 132.999 72.23C133.823 72.23 134.621 72.2566 135.446 72.2033C136.27 72.15 136.935 71.2438 136.882 70.3643C136.855 69.4581 136.19 68.6585 135.392 68.6318C134.595 68.6052 133.797 68.6318 132.999 68.6318C132.76 68.6318 132.68 68.7118 132.68 68.9517C132.68 69.4314 132.68 69.9112 132.68 70.3909" fill="#2A578F"/>
<path d="M128.079 70.8706C128.079 72.15 128.079 73.4027 128.079 74.6554C128.079 76.7343 126.856 78.3069 124.861 78.76C123.345 79.1065 121.856 79.0532 120.473 78.1736C119.303 77.4007 118.665 76.3079 118.638 74.9219C118.638 72.2033 118.638 69.4847 118.638 66.7927C118.638 66.3929 118.771 66.313 119.117 66.3396C119.569 66.3396 120.047 66.3663 120.5 66.3396C120.925 66.313 121.058 66.4462 121.058 66.8993C121.058 69.2981 121.058 71.6969 121.058 74.0957C121.058 74.4155 121.058 74.7354 121.111 75.0285C121.218 75.5883 121.51 76.0414 122.015 76.2812C122.893 76.7077 123.797 76.681 124.701 76.2812C125.207 76.0414 125.499 75.6149 125.579 75.0552C125.606 74.7354 125.659 74.4155 125.659 74.1223C125.659 71.8035 125.659 69.4847 125.659 67.1392C125.659 66.2063 125.579 66.3663 126.404 66.3663C126.829 66.3663 127.228 66.3663 127.627 66.3663C127.999 66.3663 128.106 66.4729 128.106 66.846C128.106 68.2053 128.106 69.5646 128.106 70.924" fill="#2A578F"/>
<path d="M90.7403 78.9465C88.7457 78.9198 87.0968 78.2535 86.1129 76.3611C85.9267 75.988 85.9799 75.8281 86.3522 75.6415C86.8309 75.4016 87.283 75.1084 87.7351 74.8419C87.9479 74.7086 88.0542 74.7353 88.134 74.9752C88.6925 76.3611 90.2882 76.7876 91.6711 76.4944C92.336 76.3611 92.7615 75.988 92.8147 75.4549C92.8944 74.8952 92.6285 74.4954 91.9902 74.1489C91.2988 73.8024 90.5541 73.6158 89.8627 73.4026C89.251 73.2161 88.6925 72.9762 88.1074 72.683C85.8203 71.5369 86.1129 68.3119 87.6287 67.1125C89.8627 65.3534 93.4795 66.073 94.7826 68.605C94.9422 68.8716 94.8624 69.0048 94.6231 69.1115C94.171 69.3513 93.7189 69.6179 93.2668 69.8844C93.0008 70.071 92.8412 70.0177 92.6551 69.7245C91.9902 68.7117 91.0594 68.3119 89.9425 68.5517C89.4106 68.685 88.9851 68.9515 88.9053 69.5646C88.8255 70.1243 89.0914 70.5241 89.6765 70.8439C90.6871 71.3503 91.8041 71.5902 92.8678 72.0167C94.6497 72.7363 95.4475 73.909 95.2879 75.6415C95.155 77.214 93.9582 78.4667 92.2562 78.8399C91.7509 78.9465 91.2722 78.9998 90.7669 78.9731" fill="#2A578F"/>
<path d="M173.662 78.9466C171.72 78.9466 170.072 78.2803 169.061 76.4679C168.822 76.0414 168.822 75.7749 169.3 75.5617C169.726 75.3751 170.151 75.1086 170.55 74.842C170.79 74.6821 170.896 74.6554 171.029 74.9753C171.774 76.6011 173.635 76.7611 174.779 76.3879C175.258 76.228 175.603 75.9348 175.656 75.3751C175.71 74.7887 175.444 74.4156 174.965 74.1757C174.353 73.8559 173.688 73.6693 173.024 73.4827C172.439 73.2961 171.853 73.1096 171.295 72.843C169.912 72.2034 169.221 71.1905 169.274 69.6447C169.327 68.1254 170.125 67.1126 171.455 66.4996C173.662 65.4868 176.375 66.4196 177.598 68.5252C177.757 68.8184 177.757 68.9783 177.438 69.1116C177.252 69.1916 177.093 69.2982 176.906 69.4048C176.561 69.618 176.215 69.9645 175.843 69.9645C175.47 69.9645 175.391 69.4048 175.098 69.1649C174.353 68.5252 173.529 68.3653 172.625 68.6052C172.146 68.7384 171.827 69.0583 171.747 69.5913C171.694 70.1244 171.933 70.5242 172.412 70.7907C172.917 71.0573 173.449 71.2438 174.008 71.4304C174.646 71.6436 175.311 71.8569 175.949 72.1234C177.438 72.7364 178.156 73.8025 178.13 75.2951C178.13 76.8144 177.305 78.0404 175.869 78.6001C175.151 78.8933 174.407 79.0266 173.635 78.9999" fill="#2A578F"/>
<path d="M105.474 72.5501C105.5 69.8315 106.963 67.5393 109.303 66.6065C111.803 65.5936 114.649 66.18 116.457 68.0191C117.06 68.641 116.998 69.1652 116.271 69.5916C115.925 69.7782 115.606 70.098 115.26 70.1247C114.835 70.178 114.782 69.6183 114.463 69.4051C113.08 68.3123 111.564 68.2057 110.021 68.8986C108.479 69.6183 107.894 70.9776 107.92 72.6034C107.974 76.1217 111.298 77.2677 113.665 76.175C114.197 75.9351 114.622 75.5886 114.941 75.1088C115.101 74.8423 115.234 74.8423 115.473 75.0022C115.899 75.2687 116.324 75.5619 116.776 75.7485C117.308 75.9617 117.202 76.2016 116.909 76.5481C115.872 77.8808 114.489 78.6537 112.84 78.9202C109.356 79.4266 106.245 77.2144 105.607 73.7762C105.527 73.3764 105.527 72.9499 105.5 72.5501" fill="#2A578F"/>
<path d="M160.099 72.523C160.099 70.6307 160.099 68.7383 160.099 66.8459C160.099 66.4461 160.205 66.3395 160.577 66.3662C162.785 66.3662 164.992 66.3662 167.199 66.3662C167.545 66.3662 167.705 66.4461 167.678 66.8193C167.651 67.3257 167.651 67.8321 167.678 68.3385C167.678 68.6583 167.572 68.7383 167.279 68.7383C165.87 68.7383 164.487 68.7383 163.104 68.7383C162.678 68.7383 162.492 68.8182 162.545 69.2714C162.599 69.7778 162.599 70.2842 162.545 70.7639C162.519 71.2437 162.625 71.4036 163.13 71.377C164.354 71.3236 165.577 71.377 166.8 71.377C167.146 71.377 167.279 71.4569 167.226 71.8034C167.173 72.4164 167.492 73.1894 167.12 73.5625C166.8 73.8557 166.029 73.6425 165.444 73.6691C164.62 73.6691 163.795 73.6691 162.997 73.6691C162.625 73.6691 162.519 73.7757 162.545 74.1489C162.545 74.7886 162.545 75.4016 162.545 76.0413C162.545 76.3611 162.652 76.4411 162.971 76.4411C164.38 76.4411 165.79 76.4411 167.199 76.4411C167.651 76.4411 167.864 76.521 167.784 77.0274C167.731 77.4539 167.784 77.907 167.784 78.3601C167.784 78.6799 167.705 78.8132 167.359 78.8132C165.098 78.8132 162.838 78.8132 160.577 78.8132C160.205 78.8132 160.125 78.7066 160.125 78.3334C160.125 76.4144 160.125 74.4954 160.125 72.5763" fill="#2A578F"/>
<path d="M150.631 73.7226C150.631 75.2152 150.631 76.7077 150.631 78.1737C150.631 78.6268 150.498 78.7334 150.073 78.7067C149.647 78.6801 149.222 78.6801 148.796 78.7067C148.317 78.76 148.158 78.6001 148.158 78.0937C148.158 75.1352 148.158 72.1767 148.158 69.2448C148.158 68.7917 148.078 68.6318 147.599 68.6585C146.802 68.7118 146.004 68.6585 145.206 68.6585C144.913 68.6585 144.807 68.5519 144.834 68.2587C144.834 67.619 144.647 66.8461 144.94 66.4196C145.232 66.0198 146.083 66.313 146.669 66.2863C148.902 66.2863 151.11 66.2863 153.344 66.2863C153.796 66.2863 153.982 66.3663 153.929 66.8461C153.876 67.4058 154.115 68.1787 153.822 68.5252C153.477 68.925 152.705 68.6052 152.12 68.6585C151.615 68.6851 150.977 68.4453 150.658 68.7384C150.339 69.0316 150.578 69.698 150.551 70.1777C150.551 71.3504 150.551 72.5232 150.551 73.6959" fill="#2A578F"/>
<path d="M143.557 72.5766C143.557 74.4689 143.557 76.3613 143.557 78.2537C143.557 78.6002 143.477 78.7335 143.105 78.7335C142.573 78.7068 142.068 78.7068 141.536 78.7335C141.19 78.7335 141.11 78.6268 141.11 78.2804C141.11 74.4423 141.11 70.6309 141.11 66.7928C141.11 66.4463 141.19 66.3131 141.562 66.3397C142.068 66.3664 142.573 66.3664 143.052 66.3397C143.451 66.3131 143.557 66.4463 143.557 66.8461C143.557 68.7652 143.557 70.6842 143.557 72.5766Z" fill="#2A578F"/>
<path d="M157.812 72.5231C157.812 74.4155 157.812 76.3078 157.812 78.2002C157.812 78.6267 157.679 78.7599 157.28 78.7066C156.668 78.6533 155.817 78.9731 155.471 78.5733C155.152 78.2269 155.365 77.4006 155.365 76.7876C155.365 73.4559 155.365 70.1509 155.365 66.8193C155.365 66.3928 155.471 66.2596 155.897 66.3129C156.349 66.3395 156.828 66.3662 157.28 66.3129C157.732 66.2596 157.838 66.4728 157.812 66.8726C157.812 68.7383 157.812 70.6307 157.812 72.4964V72.5231Z" fill="#2A578F"/>
</g>
<defs>
<clipPath id="clip0_151_2260">
<rect width="221" height="79" fill="white"/>
</clipPath>
</defs>
</svg>
