<svg width="201" height="201" viewBox="0 0 201 201" fill="none" xmlns="http://www.w3.org/2000/svg">
<path d="M94.3369 87.2257L94.1123 86.779L94.1013 86.7845L94.0906 86.7906L94.3369 87.2257ZM108.221 87.2257L108.47 86.7924L108.458 86.7854L108.445 86.779L108.221 87.2257ZM192.337 135.659L192.087 136.093L192.837 136.524V135.659H192.337ZM192.337 130.476V129.976H191.837V130.476H192.337ZM200.5 130.476H201V129.976H200.5V130.476ZM200.5 142.715L201 142.723V142.715H200.5ZM197.556 146.699L197.802 147.134L197.803 147.134L197.556 146.699ZM106.553 198.223L106.777 198.67L106.788 198.664L106.799 198.658L106.553 198.223ZM92.6934 198.223L92.4436 198.656L92.4562 198.663L92.4691 198.67L92.6934 198.223ZM3.33301 146.699L3.08189 147.132L3.08326 147.132L3.33301 146.699ZM0.5 142.724L1 142.726V142.724H0.5ZM0.5 130.476V129.976H0V130.476H0.5ZM8.66309 130.476H9.16309V129.976H8.66309V130.476ZM8.66309 135.731H8.16309V136.588L8.90942 136.166L8.66309 135.731ZM94.3369 87.2257L94.5616 87.6724C98.7876 85.5471 103.77 85.5471 107.996 87.6724L108.221 87.2257L108.445 86.779C103.937 84.5115 98.621 84.5116 94.1123 86.779L94.3369 87.2257ZM108.221 87.2257L107.971 87.659L192.087 136.093L192.337 135.659L192.586 135.226L108.47 86.7924L108.221 87.2257ZM192.337 135.659H192.837V130.476H192.337H191.837V135.659H192.337ZM192.337 130.476V130.976H200.5V130.476V129.976H192.337V130.476ZM200.5 130.476H200V142.715H200.5H201V130.476H200.5ZM200.5 142.715L200 142.706C199.98 143.904 199.158 145.211 197.308 146.265L197.556 146.699L197.803 147.134C199.829 145.98 200.971 144.403 201 142.723L200.5 142.715ZM197.556 146.699L197.309 146.264L106.306 197.788L106.553 198.223L106.799 198.658L197.802 147.134L197.556 146.699ZM106.553 198.223L106.328 197.776C102.109 199.893 97.1372 199.893 92.9176 197.776L92.6934 198.223L92.4691 198.67C96.9709 200.929 102.275 200.929 106.777 198.67L106.553 198.223ZM92.6934 198.223L92.9431 197.79L3.58276 146.266L3.33301 146.699L3.08326 147.132L92.4436 198.656L92.6934 198.223ZM3.33301 146.699L3.58412 146.267C1.77429 145.216 0.994739 143.92 0.999995 142.726L0.5 142.724L4.85778e-06 142.722C-0.0073812 144.399 1.08931 145.974 3.08189 147.132L3.33301 146.699ZM0.5 142.724H1V130.476H0.5H0V142.724H0.5ZM0.5 130.476V130.976H8.66309V130.476V129.976H0.5V130.476ZM8.66309 130.476H8.16309V135.731H8.66309H9.16309V130.476H8.66309ZM8.66309 135.731L8.90942 136.166L94.5833 87.6608L94.3369 87.2257L94.0906 86.7906L8.41675 135.295L8.66309 135.731Z" fill="white"/>
<path d="M197.703 126.505C201.481 128.688 201.432 132.246 197.556 134.454L106.552 185.978C102.192 188.166 97.054 188.166 92.6933 185.978L3.33316 134.454C-0.468877 132.246 -0.419818 128.713 3.33316 126.505L94.3368 74.9807C98.7042 72.7843 103.853 72.7843 108.22 74.9807L197.703 126.505Z" stroke="white"/>
<path opacity="0.7" d="M170.259 130.482L101.03 170.612L31.3418 130.482L100.571 90.3674L170.259 130.482V130.482Z" fill="url(#paint0_linear_687_15797)"/>
<path d="M170.259 42.7266L101.03 82.8572L31.3418 42.7266L100.571 2.6123L170.259 42.7266V42.7266Z" stroke="white"/>
<path d="M170.029 122.58L100.8 162.694V82.9018L170.258 42.7266L170.029 122.58Z" stroke="white"/>
<path d="M101.029 82.8572L100.8 162.694L31.1123 122.58L31.3415 42.7266L101.029 82.8572V82.8572Z" stroke="white"/>
<path d="M135.937 102.957L100.915 123.217V82.9176L136.053 62.6271L135.937 102.957Z" fill="#C6CEE4"/>
<path d="M101.031 82.8951L100.915 123.217L65.6611 102.957L65.7771 62.6271L101.031 82.8951V82.8951Z" fill="url(#paint1_linear_687_15797)"/>
<path d="M136.053 103.117L101.031 123.385L65.7773 103.117L100.799 82.8572L136.053 103.117V103.117Z" fill="url(#paint2_linear_687_15797)"/>
<path d="M136.135 22.3658L101.113 42.6338L65.8594 22.3658L100.881 2.10608L136.135 22.3658V22.3658Z" fill="url(#paint3_linear_687_15797)"/>
<path d="M136.019 62.6957L100.997 82.9554V42.6564L136.135 22.3658L136.019 62.6957Z" fill="url(#paint4_linear_687_15797)"/>
<path d="M101.113 42.6338L100.997 82.9554L65.7432 62.6957L65.8591 22.3658L101.113 42.6338V42.6338Z" fill="url(#paint5_linear_687_15797)"/>
<path d="M65.7197 10.4365V103.27L101.023 123.483L135.921 103.27V83.9059" stroke="#22C55E" stroke-width="1.02041" stroke-linecap="round" stroke-linejoin="round" stroke-dasharray="3.27 3.27"/>
<path fill-rule="evenodd" clip-rule="evenodd" d="M135.906 89.3877C138.619 89.3877 140.819 87.1948 140.819 84.4898C140.819 81.7847 138.619 79.5918 135.906 79.5918C133.193 79.5918 130.994 81.7847 130.994 84.4898C130.994 87.1948 133.193 89.3877 135.906 89.3877Z" fill="url(#paint6_radial_687_15797)"/>
<path fill-rule="evenodd" clip-rule="evenodd" d="M65.7433 9.79592C68.4562 9.79592 70.6554 7.60303 70.6554 4.89796C70.6554 2.19289 68.4562 0 65.7433 0C63.0303 0 60.8311 2.19289 60.8311 4.89796C60.8311 7.60303 63.0303 9.79592 65.7433 9.79592Z" fill="url(#paint7_radial_687_15797)"/>
<defs>
<linearGradient id="paint0_linear_687_15797" x1="170.259" y1="90.3674" x2="31.3418" y2="90.3674" gradientUnits="userSpaceOnUse">
<stop stop-color="#C6CEE4"/>
<stop offset="1" stop-color="#6B7693"/>
</linearGradient>
<linearGradient id="paint1_linear_687_15797" x1="64.2375" y1="124.204" x2="96.4005" y2="118.731" gradientUnits="userSpaceOnUse">
<stop stop-color="#F1F5FF"/>
<stop offset="1" stop-color="#D1D7E8"/>
</linearGradient>
<linearGradient id="paint2_linear_687_15797" x1="65.7773" y1="82.8572" x2="65.7773" y2="123.385" gradientUnits="userSpaceOnUse">
<stop stop-color="#F1F5FF"/>
<stop offset="1" stop-color="white"/>
</linearGradient>
<linearGradient id="paint3_linear_687_15797" x1="67.1296" y1="2.10608" x2="67.1296" y2="41.1687" gradientUnits="userSpaceOnUse">
<stop stop-color="#8FFFA4"/>
<stop offset="1" stop-color="#CFFFCA"/>
</linearGradient>
<linearGradient id="paint4_linear_687_15797" x1="140.861" y1="32.6355" x2="104.599" y2="25.805" gradientUnits="userSpaceOnUse">
<stop stop-color="#48FC72"/>
<stop offset="1" stop-color="#8FFFC2"/>
</linearGradient>
<linearGradient id="paint5_linear_687_15797" x1="71.4263" y1="92.3986" x2="109.122" y2="85.3271" gradientUnits="userSpaceOnUse">
<stop stop-color="#22C55E"/>
<stop offset="1" stop-color="#00812F"/>
</linearGradient>
<radialGradient id="paint6_radial_687_15797" cx="0" cy="0" r="1" gradientTransform="matrix(4.73288 4.72205 -4.73578 4.71916 134.605 83.4573)" gradientUnits="userSpaceOnUse">
<stop stop-color="#EBFFED"/>
<stop offset="1" stop-color="#48FC6F"/>
</radialGradient>
<radialGradient id="paint7_radial_687_15797" cx="0" cy="0" r="1" gradientTransform="matrix(4.73288 4.72205 -4.73578 4.71916 64.4418 3.86551)" gradientUnits="userSpaceOnUse">
<stop stop-color="#EBFFED"/>
<stop offset="1" stop-color="#48FC6F"/>
</radialGradient>
</defs>
</svg>
