<svg width="376" height="54" viewBox="0 0 376 54" fill="none" xmlns="http://www.w3.org/2000/svg">
<g clip-path="url(#clip0_151_2330)">
<path d="M0.0453504 27.0062C0.0421099 19.5215 0.119883 12.0337 -1.71298e-05 4.5522C-0.0389036 2.02416 1.83737 -0.038698 4.6372 -0.000199863C11.1636 0.0992536 17.6901 0.0318819 24.2165 0.0318819C32.723 0.0318819 41.2294 0.0992536 49.7326 -0.00340804C53.0314 -0.0419061 54.6452 2.15569 54.6323 4.86339C54.5642 19.714 54.5999 34.5679 54.5966 49.4185C54.5966 51.7348 53.4754 53.3453 51.4792 53.8426C50.9705 53.9709 50.426 53.9934 49.9011 53.9934C34.839 53.9998 19.777 53.9934 4.71821 53.9998C3.60347 53.9998 2.53409 53.8811 1.63322 53.1528C0.618926 52.3348 0.0421099 51.3146 0.0421099 49.9832C0.0518315 42.322 0.0453504 34.6641 0.0453504 27.003V27.0062Z" fill="white"/>
<path d="M28.371 19.2166C29.651 19.6401 30.8792 20.224 32.2175 20.4839C32.6291 20.5641 33.0374 20.6026 33.4489 20.5769C34.3141 20.5224 34.7127 20.131 34.5928 19.2744C34.4016 17.9013 34.4081 16.5378 34.5766 15.1679C34.6058 14.9209 34.6771 14.6739 34.3822 14.4686C32.3309 13.0505 32.2045 10.8914 32.0522 8.62646C34.3433 9.1911 36.4399 9.8167 37.5871 12.0015C37.7977 12.4025 39.3273 12.2613 39.7647 11.7961C40.7012 10.8048 41.735 9.95144 42.9858 9.37397C43.6307 9.07561 44.3015 8.85425 45.0176 8.81896C45.2801 8.80612 45.5653 8.75479 45.507 9.20073C45.2866 10.8979 45.0565 12.6752 43.6631 13.8045C42.759 14.5359 42.49 15.1776 42.7201 16.2491C42.9729 17.4297 42.49 18.5558 42.1627 19.6722C41.9229 20.4999 41.9002 21.2667 42.3085 22.043C43.1122 23.5669 43.0474 25.1999 42.8789 26.8393C42.6715 28.8508 42.5905 30.8559 42.9729 32.861C43.271 34.4298 42.9793 35.9409 42.3766 37.4006C41.3656 39.8516 38.5139 40.2751 36.8806 38.1962C36.0867 37.1824 35.3738 36.1077 34.6252 35.0586C34.2331 34.51 33.9155 34.3913 33.4748 35.0779C31.9907 37.3845 30.6491 39.7361 30.4806 42.5529C30.4384 43.2908 30.5292 44.0126 30.7366 44.7184C31.2518 46.4733 32.3212 47.3331 34.1748 47.471C36.3881 47.6379 38.5981 47.2914 40.8147 47.4133C42.4511 47.5031 43.4265 47.9523 44.0746 48.9725C43.9807 49.1232 43.8251 49.1008 43.6825 49.1008C38.5139 49.1008 33.3452 49.1008 28.1765 49.1008C28.0307 49.1008 27.8849 49.0655 27.7423 49.0463C27.5349 48.7607 27.5803 48.4335 27.5803 48.1159C27.5803 38.7705 27.5868 29.4251 27.5641 20.0796C27.5641 19.4476 27.7229 19.1557 28.371 19.2102V19.2166Z" fill="#18498C"/>
<path d="M14.0866 43.2268C10.5771 43.2268 7.06438 43.2171 3.55487 43.2396C3.01046 43.2428 2.79658 43.1401 2.79334 42.537C2.78362 40.2656 2.7577 40.2656 5.0682 40.2656C11.5298 40.2656 17.9915 40.2784 24.4531 40.2496C25.2211 40.2464 25.529 40.3811 25.4998 41.2345C25.4318 43.2268 25.4804 43.23 23.4712 43.23C20.3441 43.23 17.217 43.23 14.0899 43.23L14.0866 43.2268Z" fill="#19498C"/>
<path d="M14.0932 46.1974C17.6318 46.1974 21.1705 46.2134 24.7124 46.1813C25.3378 46.1749 25.4966 46.3578 25.4934 46.9609C25.4869 49.1072 25.5096 49.1072 23.3449 49.1072C16.8282 49.1072 10.3082 49.0975 3.79147 49.1232C3.06883 49.1232 2.75774 49.027 2.7869 48.1928C2.85495 46.1974 2.80635 46.1974 4.80576 46.1974C7.90372 46.1974 10.9984 46.1974 14.0964 46.1974H14.0932Z" fill="#1A498B"/>
<path d="M14.2098 22.6012C17.6902 22.6012 21.1705 22.6172 24.6508 22.5851C25.3054 22.5787 25.5031 22.7455 25.4966 23.4128C25.4707 25.5174 25.4999 25.5174 23.4097 25.5174C16.8314 25.5174 10.2531 25.5078 3.67806 25.5334C2.99754 25.5334 2.78043 25.3859 2.79339 24.6801C2.83228 22.6044 2.79987 22.6044 4.91918 22.6044C8.01714 22.6044 11.1119 22.6044 14.2098 22.6044V22.6012Z" fill="#19498C"/>
<path d="M14.2 16.7145C17.6836 16.7145 21.164 16.7305 24.6475 16.6985C25.2892 16.692 25.5063 16.8236 25.4966 17.5069C25.4706 19.65 25.503 19.65 23.3286 19.65C16.8054 19.65 10.2822 19.6371 3.76225 19.6692C2.97804 19.6724 2.76741 19.4767 2.78685 18.7036C2.84194 16.7177 2.80305 16.7145 4.81219 16.7145C7.93931 16.7145 11.0697 16.7145 14.1968 16.7145H14.2Z" fill="#19498B"/>
<path d="M14.1061 28.4851C17.6513 28.4851 21.1964 28.4979 24.7416 28.4722C25.3119 28.469 25.4901 28.6038 25.4934 29.1909C25.5031 31.4366 25.5258 31.4366 23.2639 31.4366C16.7342 31.4366 10.2045 31.427 3.6748 31.4526C2.97808 31.4526 2.78041 31.273 2.79013 30.58C2.82578 28.4851 2.79661 28.4851 4.88676 28.4851C7.9588 28.4851 11.0308 28.4851 14.1061 28.4851Z" fill="#19498A"/>
<path d="M14.0996 13.7468C10.616 13.7468 7.13245 13.734 3.64887 13.7597C3.03965 13.7629 2.77717 13.6827 2.79013 12.9737C2.82253 10.8049 2.79013 10.8049 5.00666 10.8049C11.4715 10.8049 17.9397 10.821 24.4045 10.7857C25.2276 10.7825 25.5322 10.9333 25.4998 11.8187C25.4285 13.7468 25.4804 13.7468 23.4907 13.7468C20.3603 13.7468 17.23 13.7468 14.1029 13.7468H14.0996Z" fill="#19498A"/>
<path d="M14.0802 37.3011C10.5966 37.3011 7.11302 37.2851 3.62943 37.3172C2.97808 37.3236 2.78041 37.1696 2.79013 36.5023C2.82254 34.4138 2.79013 34.4106 4.89 34.4106C11.4456 34.4106 17.998 34.4202 24.5536 34.3945C25.2698 34.3945 25.5128 34.5485 25.4966 35.2992C25.448 37.2979 25.4869 37.2979 23.468 37.2979C20.3377 37.2979 17.2105 37.2979 14.0802 37.2979V37.3011Z" fill="#19488A"/>
<path d="M14.0964 7.85024C10.616 7.85024 7.13568 7.83741 3.65534 7.86307C3.04612 7.86628 2.77716 7.78608 2.79012 7.07386C2.82252 4.93401 2.78688 4.93401 4.92888 4.93401C11.478 4.93401 18.0239 4.94684 24.573 4.91797C25.3086 4.91797 25.5128 5.10725 25.4966 5.83551C25.4512 7.85024 25.4836 7.85024 23.4777 7.85024C20.3506 7.85024 17.2235 7.85024 14.0996 7.85024H14.0964Z" fill="#19488A"/>
<path d="M28.3709 19.2169C27.8265 19.3388 27.6645 19.6564 27.6645 20.221C27.6807 29.4542 27.671 38.6905 27.671 47.9236C27.671 48.299 27.7131 48.6775 27.739 49.0529C27.2076 48.8957 27.5025 48.4658 27.4992 48.1931C27.4798 40.1983 27.483 32.2004 27.483 24.2056C27.483 22.7459 27.5316 21.2862 27.4636 19.8296C27.4247 18.9987 27.6839 18.864 28.3709 19.2201V19.2169Z" fill="#1B4875"/>
<path d="M41.8386 33.7111C41.7867 34.279 41.4627 34.6222 41.1419 34.9655C39.7646 36.4413 39.6545 36.4637 37.924 35.4948C36.9972 34.9751 36.145 34.3559 35.351 33.6437C35.0237 33.3486 35.0237 33.1433 35.3445 32.877C35.526 32.7262 35.6913 32.5594 35.8565 32.3925C37.9921 30.2174 40.0952 31.3852 41.5567 33.1401C41.6992 33.3133 41.7608 33.5507 41.8386 33.7111Z" fill="#FDFDFD"/>
<path d="M168.553 43.554C165.802 43.3903 162.814 43.8748 159.892 43.1594C156.505 42.3316 153.848 40.4645 151.913 37.5675C151.333 36.6981 151.11 36.0757 152.38 35.7132C152.681 35.6266 152.944 35.4052 153.229 35.2608C154.091 34.8245 154.927 34.1219 155.828 34.0257C156.917 33.9102 157.056 35.2993 157.766 35.9025C159.217 37.1344 160.851 37.9429 162.733 37.9557C167.154 37.991 171.58 38.2091 175.997 37.776C178.447 37.5354 179.309 36.5634 179.225 34.1283C179.205 33.5413 179.111 32.9606 179.085 32.3735C179.014 30.8624 178.087 30.2497 176.7 30.0636C174.613 29.7813 172.517 29.6529 170.414 29.5984C166.376 29.4925 162.338 29.4187 158.437 28.113C153.148 26.3453 150.565 20.869 152.649 15.7198C153.657 13.2239 155.672 11.8957 158.132 11.145C159.892 10.6092 161.719 10.4007 163.563 10.4328C167.815 10.5098 172.099 9.95475 176.311 10.8049C179.808 11.5107 182.433 13.5479 184.377 16.5026C184.899 17.2951 184.993 17.8116 183.962 18.1677C183.609 18.2896 183.295 18.511 182.961 18.681C182.099 19.1173 181.263 19.8327 180.368 19.9161C179.283 20.0156 179.173 18.62 178.492 17.9912C177.212 16.8138 175.764 15.9925 174.036 15.9797C169.727 15.9444 165.404 15.6557 161.103 16.2235C159.149 16.4802 157.886 17.51 157.769 18.9152C157.581 21.1449 158.368 22.3287 160.579 22.9382C162.977 23.5959 165.433 23.9167 167.928 23.936C171.217 23.9649 174.513 23.9328 177.76 24.5648C182.352 25.4599 184.542 28.0104 184.792 32.6077C184.883 34.2663 185.009 35.9281 184.669 37.5579C184.034 40.6024 181.545 42.6076 177.967 43.1754C174.908 43.6598 171.83 43.4706 168.557 43.5508L168.553 43.554Z" fill="#FDFEFE"/>
<path d="M333.141 10.773C338.105 10.7378 343.066 10.6928 348.031 10.6672C350.299 10.6543 352.571 10.5934 354.833 10.7089C360.351 10.9912 364.457 15.2934 364.538 20.7697C364.632 26.9775 360.873 31.4369 355.121 31.9406C354.862 31.963 354.603 31.9759 354.016 32.0144C357.863 35.8032 361.534 39.4188 365.549 43.3745C362.668 43.3745 360.316 43.3713 357.96 43.3777C357.539 43.3777 357.26 43.166 356.988 42.8933C351.54 37.4843 346.093 32.0817 340.633 26.6631C341.018 26.1081 341.547 26.3519 341.974 26.3487C345.863 26.3263 349.748 26.3487 353.637 26.3263C357.143 26.3038 358.825 24.6292 358.812 21.2285C358.802 17.9946 357.017 16.259 353.64 16.2462C349.214 16.2302 344.784 16.3007 340.357 16.2045C339.012 16.1756 338.792 16.6408 338.799 17.8278C338.844 25.7937 338.792 33.7564 338.854 41.7223C338.863 43.0697 338.475 43.5061 337.133 43.4002C335.85 43.2975 334.547 43.413 333.251 43.4291C332.671 43.0056 332.817 42.3832 332.817 41.8121C332.8 31.854 332.839 21.8926 332.787 11.9344C332.787 11.4949 332.752 11.081 333.137 10.773H333.141Z" fill="#FDFEFE"/>
<path d="M255.692 23.1565C255.614 16.7434 250.474 11.113 244.022 10.8083C237.833 10.5163 231.618 10.7249 225.418 10.6126C224.061 10.5901 223.847 11.0681 223.86 12.2487C223.918 17.1637 223.882 22.0754 223.882 26.9903C223.882 31.9052 223.905 37.0319 223.863 42.0527C223.857 42.9991 224.077 43.3424 225.111 43.3359C230.937 43.3039 236.764 43.429 242.59 43.3456C249.366 43.2461 254.609 38.9247 255.533 32.4346C255.964 29.3932 255.731 26.2524 255.692 23.1565ZM249.94 31.363C249.528 34.953 246.667 37.6254 242.998 37.7056C238.851 37.7986 234.696 37.7056 230.545 37.7537C229.657 37.7633 229.472 37.4361 229.482 36.6341C229.518 33.4323 229.498 30.2306 229.495 27.0288C229.495 23.8816 229.534 20.7312 229.476 17.5839C229.456 16.5701 229.696 16.1948 230.801 16.214C234.628 16.2814 238.455 16.214 242.282 16.2525C246.764 16.3007 249.732 18.9634 250.017 23.3683C250.189 26.0246 250.244 28.7035 249.94 31.363Z" fill="#FEFFFF"/>
<path d="M83.6384 26.2073C88.8103 26.2073 93.7197 26.2458 98.6259 26.1784C99.7276 26.1624 100.272 26.464 100.567 27.5162C100.868 28.591 101.293 29.6401 101.779 30.6474C102.336 31.8024 101.85 31.9243 100.813 31.9179C94.9316 31.8858 89.0468 31.9564 83.1652 31.8633C81.8237 31.8409 81.3181 32.2964 80.9195 33.4738C79.9279 36.3997 78.7581 39.2678 77.7276 42.184C77.4133 43.0759 76.979 43.4769 75.9874 43.3999C74.8597 43.3101 73.7191 43.3133 72.5913 43.3935C71.3891 43.4801 71.2595 43.1272 71.6678 42.0525C73.9329 36.1238 76.1268 30.1694 78.3465 24.2247C79.0173 22.4249 79.6784 20.6251 80.3751 18.8349C82.0019 14.6418 86.0201 10.2081 92.8188 10.3814C99.0244 10.5386 103.354 13.0987 105.548 18.6617C108.616 26.4479 111.539 34.2919 114.56 42.0974C114.935 43.0695 114.832 43.3646 113.701 43.3967C109.028 43.5186 109.028 43.5539 107.382 39.2678C105.107 33.3423 102.819 27.4232 100.567 21.4881C98.5027 16.047 94.9997 15.4728 90.4208 16.2844C88.2658 16.6662 86.8562 18.2735 85.9813 20.1824C85.1193 22.0623 84.4712 24.0418 83.6416 26.2073H83.6384Z" fill="#FEFEFE"/>
<path d="M329.582 20.4132C329.401 19.871 329.216 19.3256 329.032 18.7835C329.129 18.0103 328.986 17.3398 328.244 16.9227C327.722 15.1358 326.41 14.0225 324.903 13.0729C321.983 11.0004 318.723 10.2048 315.149 10.3845C312.887 10.4967 310.612 10.3588 308.347 10.439C302.015 10.6604 296.733 15.5528 296.166 21.7895C295.855 25.1998 295.871 28.6326 296.153 32.0396C296.636 37.8721 301.224 42.7934 307.106 43.3773C311.328 43.7944 315.616 43.788 319.864 43.249C323.037 43.1143 327.097 40.0921 328.254 37.0027C328.348 36.5343 328.536 36.114 328.87 35.7643C329.472 34.7955 329.884 33.7785 329.667 32.6043C329.741 31.7413 329.819 30.8751 329.894 30.0121C330.069 26.8039 330.441 23.5893 329.582 20.4132ZM324.093 30.3265C324.057 34.8051 321.238 37.7951 316.727 37.9844C314.196 38.0903 311.653 38.0838 309.122 37.9876C304.634 37.8111 301.756 34.8051 301.714 30.3489C301.691 28.0519 301.685 25.7548 301.714 23.4578C301.772 19.1203 304.715 16.1046 309.096 15.9603C311.627 15.8768 314.167 15.8801 316.701 15.9538C321.086 16.0822 324.035 19.1075 324.09 23.4353C324.103 24.6095 324.093 25.7837 324.093 26.9611C324.093 28.1385 324.099 29.2036 324.093 30.3265Z" fill="#FDFEFE"/>
<path d="M292.653 22.8964C292.598 16.9003 288.551 12.1041 282.643 10.7117C280.404 10.1856 278.126 10.516 275.871 10.4294C274.357 10.4294 272.844 10.3813 271.334 10.4358C265.345 10.654 260.241 14.9818 259.266 20.8175C258.631 24.6288 258.683 28.5235 259.146 32.322C259.969 39.0752 265.255 43.4608 272.124 43.5314C274.876 43.5602 277.63 43.5795 280.381 43.5025C286.036 43.3485 291.04 39.3479 292.297 33.9165C293.139 30.2848 292.689 26.5697 292.653 22.8964ZM286.986 31.2761C286.684 35.0425 284.238 37.5096 280.479 37.8785C277.319 38.1897 274.114 38.2379 270.955 37.8368C267.306 37.3684 264.869 34.6062 264.72 30.9906C264.665 29.6047 264.71 28.2155 264.71 26.8264H264.7C264.7 25.6522 264.674 24.478 264.707 23.3038C264.817 19.1107 267.64 16.1624 271.885 15.9667C274.522 15.8448 277.173 15.8576 279.811 15.9667C283.813 16.1271 286.652 18.6872 286.973 22.6397C287.209 25.5046 287.212 28.4144 286.986 31.2761Z" fill="#FEFEFE"/>
<path d="M115.033 21.8252C115.033 18.5657 115.098 15.3062 115 12.0499C114.965 10.7955 115.396 10.5549 116.562 10.5613C120.649 10.587 120.649 10.5421 120.649 14.6421C120.649 19.7175 120.642 24.7896 120.649 29.8649C120.655 35.059 123.63 38.0009 128.876 38.0169C130.872 38.0233 132.872 37.9656 134.865 38.0265C139.774 38.1805 143.206 34.7734 143.07 30.0221C142.898 24.0453 143.067 18.0588 143.002 12.0756C142.989 10.8533 143.362 10.5549 144.551 10.5581C148.754 10.571 148.754 10.526 148.754 14.6903C148.754 19.8715 148.767 25.0527 148.751 30.2339C148.725 38.0105 143.3 43.4451 135.471 43.5285C132.827 43.5574 130.182 43.5638 127.541 43.5061C120.775 43.3553 115.328 38.1099 115.081 31.4337C114.965 28.232 115.062 25.0238 115.062 21.822C115.052 21.822 115.042 21.822 115.033 21.822V21.8252Z" fill="#FEFEFF"/>
<path d="M204.028 10.6636C209.102 10.6636 214.174 10.6861 219.249 10.6443C220.256 10.6347 220.652 10.8497 220.661 11.9629C220.697 16.249 220.742 16.249 216.468 16.249C213.717 16.249 210.962 16.31 208.211 16.2202C207.019 16.1817 206.669 16.48 206.675 17.7087C206.737 25.6682 206.662 33.6309 206.747 41.5936C206.763 43.1303 206.264 43.4415 204.838 43.4094C200.988 43.3228 200.985 43.3838 200.985 39.5564C200.985 32.4503 200.943 25.3442 201.02 18.2381C201.037 16.7174 200.794 16.1175 199.053 16.2009C195.499 16.3677 191.931 16.2105 188.369 16.2747C187.303 16.2939 187.025 15.9827 187.025 14.9401C187.015 10.67 186.976 10.67 191.237 10.67C195.502 10.67 199.766 10.67 204.028 10.67V10.6636Z" fill="#FCFEFE"/>
<path d="M372.571 18.4434C372.024 18.5909 371.638 18.3632 371.476 17.8049C371.389 17.5002 371.321 17.1826 371.178 16.9067C370.948 16.4639 370.52 16.3966 370.073 16.4768C369.626 16.5538 369.723 16.9291 369.687 17.2275C369.626 17.7472 369.937 18.5396 368.939 18.4498C368.051 18.3696 368.508 17.6381 368.436 17.1954C368.365 16.7302 368.42 16.2426 368.42 15.7645C368.42 15.6041 368.394 15.4405 368.424 15.2865C368.553 14.5904 367.999 13.5477 368.783 13.2493C369.801 12.8611 371.003 12.8419 372.066 13.3873C372.649 13.6856 373.109 14.3914 372.711 14.8053C371.758 15.7902 372.581 16.5794 372.724 17.452C372.779 17.7889 373.304 18.2477 372.571 18.4434Z" fill="#F0F7FB"/>
<path d="M370.883 10.4967C367.895 10.4518 365.514 12.7232 365.468 15.6587C365.426 18.607 367.743 20.9843 370.685 21.0164C373.66 21.0484 375.987 18.7546 376 15.771C376.016 12.8548 373.77 10.5417 370.883 10.4967ZM370.805 19.7652C368.482 19.7812 366.732 18.0456 366.742 15.7421C366.755 13.4964 368.443 11.78 370.673 11.7576C372.98 11.7319 374.73 13.4707 374.726 15.787C374.723 18.0488 373.048 19.7491 370.805 19.7652Z" fill="#F0F7FB"/>
<path d="M372.571 18.4434C372.024 18.5909 371.638 18.3632 371.476 17.8049C371.389 17.5002 371.321 17.1826 371.178 16.9067C370.948 16.4639 370.52 16.3966 370.073 16.4768C369.626 16.5538 369.723 16.9291 369.687 17.2275C369.626 17.7472 369.937 18.5396 368.939 18.4498C368.051 18.3696 368.508 17.6381 368.436 17.1954C368.365 16.7302 368.42 16.2426 368.42 15.7645C368.42 15.6041 368.394 15.4405 368.424 15.2865C368.553 14.5904 367.999 13.5477 368.783 13.2493C369.801 12.8611 371.003 12.8419 372.066 13.3873C372.649 13.6856 373.109 14.3914 372.711 14.8053C371.758 15.7902 372.581 16.5794 372.724 17.452C372.779 17.7889 373.304 18.2477 372.571 18.4434Z" fill="#1B4A87"/>
<path d="M372.571 18.4434C372.024 18.5909 371.638 18.3632 371.476 17.8049C371.389 17.5002 371.321 17.1826 371.178 16.9067C370.948 16.4639 370.52 16.3966 370.073 16.4768C369.626 16.5538 369.723 16.9291 369.687 17.2275C369.626 17.7472 369.937 18.5396 368.939 18.4498C368.051 18.3696 368.508 17.6381 368.436 17.1954C368.365 16.7302 368.42 16.2426 368.42 15.7645C368.42 15.6041 368.394 15.4405 368.424 15.2865C368.553 14.5904 367.999 13.5477 368.783 13.2493C369.801 12.8611 371.003 12.8419 372.066 13.3873C372.649 13.6856 373.109 14.3914 372.711 14.8053C371.758 15.7902 372.581 16.5794 372.724 17.452C372.779 17.7889 373.304 18.2477 372.571 18.4434Z" fill="#EBF3F8"/>
<path d="M370.355 15.4985C369.639 15.5402 369.749 15.0494 369.71 14.6484C369.649 14.0484 369.995 13.9394 370.485 13.9811C371.003 14.026 371.46 14.1864 371.398 14.8056C371.337 15.4408 370.747 15.3766 370.358 15.4985H370.355Z" fill="#295283"/>
</g>
<defs>
<clipPath id="clip0_151_2330">
<rect width="376" height="54" fill="white"/>
</clipPath>
</defs>
</svg>
