<svg width="88" height="32" viewBox="0 0 88 32" fill="none" xmlns="http://www.w3.org/2000/svg">
<g clip-path="url(#clip0_151_1753)">
<path d="M0.00443173 4.49773C0.00443173 3.08974 0.00855138 1.68175 0.000312071 0.273751C-0.000374539 0.00282275 -0.0147933 -0.0803265 0.267403 0.0845862C5.0723 2.89572 9.882 5.69716 14.691 8.50137C16.4721 9.54004 18.2559 10.5732 20.0335 11.6174C23.159 13.4522 23.5126 17.7358 20.6995 19.9081C19.8008 20.6024 18.7324 21.0285 17.7691 21.6258C17.6208 21.7173 17.5075 21.6286 17.3901 21.56C14.6395 19.9566 11.889 18.3518 9.1384 16.7484C6.93163 15.4617 4.74066 14.1479 2.51124 12.902C1.42915 12.2978 0.778241 11.4095 0.374514 10.2731C0.0394488 9.33009 0.0195371 8.3517 0.00717817 7.37123C-0.00518081 6.41363 0.00443173 5.45534 0.00443173 4.49773C0.0174773 4.49773 -0.00861385 4.49773 0.00443173 4.49773Z" fill="#FD3566"/>
<path d="M0.338867 15.9477C2.55044 17.2358 4.68785 18.4803 6.8239 19.7254C8.38662 20.6359 9.95621 21.5346 11.5079 22.4645C12.6292 23.1366 13.0219 24.4635 12.4932 25.6498C12.2797 26.1286 11.9398 26.4931 11.4915 26.7529C11.1447 26.9539 10.7877 27.1375 10.4485 27.3495C10.2844 27.4521 10.1636 27.4237 10.0118 27.335C7.34297 25.7759 4.69609 24.1781 1.99154 22.6848C0.803702 22.0294 0.365645 21.0953 0.374571 19.8155C0.382124 18.6736 0.352599 17.5317 0.339554 16.3898C0.338181 16.2671 0.339554 16.1438 0.339554 15.9463L0.338867 15.9477Z" fill="#FD3566"/>
<path d="M5.08321 29.6359C5.07772 30.958 4.03339 32.0022 2.71853 32.0008C1.40436 31.9994 0.333935 30.9199 0.340115 29.6013C0.345607 28.3 1.42084 27.2114 2.70068 27.2114C4.04163 27.2114 5.08939 28.2778 5.0839 29.6359H5.08321Z" fill="#FD3566"/>
<path d="M38.6035 25.2524C37.8633 25.0619 37.1121 24.9115 36.3953 24.635C36.0651 24.5075 35.8069 24.3315 35.8021 23.9248C35.7966 23.5063 35.9682 23.1979 36.3775 23.0365C37.0297 22.7794 37.6772 22.8293 38.2931 23.1675C38.4881 23.2742 38.5959 23.4675 38.7051 23.6622C38.8033 23.8368 38.6838 24.1244 38.9207 24.1964C39.1095 24.2539 39.3292 24.2103 39.5345 24.211C39.6032 24.211 39.6718 24.211 39.7405 24.211C39.9465 24.211 40.1538 24.1957 40.3577 24.2144C40.5946 24.2366 40.6729 24.168 40.6502 23.913C40.5637 22.9568 40.1037 22.2459 39.2564 21.8391C38.0418 21.2557 36.7846 21.2197 35.5336 21.7297C34.5113 22.1461 33.9462 23.0199 33.9565 24.096C33.9661 25.0931 34.5003 25.7915 35.5748 26.219C36.2147 26.4733 36.8862 26.6175 37.5481 26.7921C37.9134 26.8884 38.2753 26.9916 38.6041 27.187C38.9214 27.3755 39.1267 27.6284 39.1047 28.0241C39.0834 28.4107 38.8747 28.6699 38.5465 28.8299C38.0466 29.0738 37.5159 29.1119 36.9741 29.0184C36.0603 28.8597 35.7142 28.5347 35.5213 27.6263C35.4835 27.4476 35.3894 27.4448 35.2555 27.4455C34.8099 27.4483 34.363 27.458 33.918 27.442C33.6942 27.4337 33.653 27.521 33.6633 27.724C33.7031 28.5029 34.0059 29.1563 34.5854 29.6635C35.8859 30.8013 38.6234 30.865 39.9863 29.8028C41.159 28.8881 41.2963 27.0976 40.2705 26.0846C39.8057 25.6252 39.2214 25.4118 38.6041 25.2531L38.6035 25.2524Z" fill="#344569"/>
<path d="M44.9355 23.8453C42.9828 23.8301 41.6892 25.1342 41.6673 27.1401C41.6453 29.1724 42.9148 30.5084 44.8799 30.5202C46.8526 30.5319 48.1502 29.2404 48.1667 27.2475C48.1839 25.1924 46.9192 23.8613 44.9348 23.8453H44.9355ZM46.3348 28.0402C46.1474 28.7782 45.6695 29.1842 44.9582 29.2022C44.2441 29.2203 43.7292 28.8475 43.5197 28.1178C43.3556 27.5448 43.344 26.9565 43.4902 26.3765C43.7024 25.536 44.1871 25.1466 44.9616 25.166C45.7059 25.1841 46.2113 25.6421 46.3705 26.4639C46.4186 26.7112 46.4275 26.9662 46.4474 27.1554C46.422 27.4956 46.4028 27.7707 46.3348 28.0402Z" fill="#344569"/>
<path d="M70.0901 23.8472C68.103 23.8368 66.8376 25.125 66.8198 27.1746C66.8026 29.1868 68.0769 30.5123 70.0351 30.52C72.0304 30.5276 73.3007 29.2374 73.3068 27.1954C73.313 25.1748 72.0469 23.8569 70.0894 23.8472H70.0901ZM71.3713 28.3567C71.1008 28.9533 70.6304 29.236 69.9754 29.202C69.3499 29.1695 68.9187 28.8487 68.7169 28.2562C68.4676 27.5259 68.471 26.7824 68.7326 26.0548C68.9407 25.477 69.4344 25.1624 70.0647 25.1624C70.6915 25.1624 71.1694 25.4846 71.3939 26.0597C71.534 26.4186 71.5828 26.7928 71.5835 27.176C71.5828 27.582 71.5409 27.9825 71.3713 28.3553V28.3567Z" fill="#344569"/>
<path d="M80.2747 25.8085C80.2246 24.7379 79.7199 24.1358 78.8795 23.9452C77.8008 23.7006 76.8313 23.8489 76.0651 24.8107C76.0651 24.6298 76.0534 24.449 76.0685 24.2695C76.085 24.0734 76.0177 24.0076 75.82 24.0152C75.443 24.0298 75.0647 24.0277 74.6877 24.0152C74.501 24.009 74.4234 24.0596 74.4241 24.2626C74.4303 26.2131 74.4302 28.1637 74.4248 30.1142C74.4248 30.3055 74.5003 30.3456 74.6699 30.3401C75.0358 30.3297 75.4032 30.3172 75.7671 30.3429C76.0712 30.3644 76.1784 30.2847 76.1708 29.9542C76.1481 28.9619 76.1619 27.969 76.1646 26.9767C76.166 26.5714 76.1914 26.1681 76.3857 25.7995C76.6164 25.3622 77.0861 25.1689 77.7205 25.2458C78.1585 25.2992 78.403 25.5528 78.5218 26.0662C78.5822 26.3275 78.5911 26.5915 78.5911 26.8575C78.5911 27.9309 78.5925 29.0042 78.5911 30.0775C78.5911 30.2237 78.5787 30.3477 78.7937 30.3408C79.2393 30.3276 79.6856 30.3339 80.1319 30.3387C80.2568 30.3401 80.3172 30.3138 80.3159 30.169C80.3035 28.7152 80.3413 27.2587 80.2733 25.8078L80.2747 25.8085Z" fill="#344569"/>
<path d="M58.0573 24.0127C57.6686 24.0245 57.2786 24.0335 56.8914 24.0093C56.6291 23.9926 56.5646 24.0806 56.5673 24.3363C56.5797 25.3632 56.5701 26.3901 56.5687 27.417C56.5687 27.7766 56.5364 28.1321 56.3963 28.4675C56.1979 28.9421 55.7262 29.1839 55.1193 29.1299C54.6029 29.0842 54.3441 28.8458 54.2116 28.2977C54.1511 28.0483 54.145 27.7953 54.1443 27.5417C54.1443 26.4684 54.1374 25.3958 54.1491 24.3232C54.1518 24.0903 54.1051 23.9954 53.8531 24.0107C53.4769 24.0328 53.0979 24.0308 52.7216 24.0114C52.4861 23.9996 52.4106 24.0654 52.4126 24.3142C52.4257 25.5482 52.4202 26.783 52.4202 28.0178C52.4202 28.3303 52.4483 28.6407 52.5136 28.9456C52.6811 29.7306 53.1301 30.2482 53.93 30.4007C54.984 30.6016 55.9363 30.4624 56.6689 29.4223C56.6689 29.7002 56.682 29.8817 56.6655 30.0605C56.647 30.269 56.7108 30.3446 56.9285 30.3335C57.2931 30.3148 57.6611 30.3127 58.0257 30.3349C58.2632 30.3494 58.3051 30.2579 58.3044 30.0431C58.2983 28.1162 58.2989 26.1899 58.3086 24.2629C58.3099 24.0571 58.2461 24.0065 58.0566 24.0127H58.0573Z" fill="#344569"/>
<path d="M85.9014 26.7481C85.5121 26.6102 85.1098 26.5243 84.7081 26.4335C84.3078 26.3434 83.8972 26.2859 83.5312 26.0794C83.3266 25.9644 83.1893 25.8036 83.2092 25.5542C83.2312 25.2874 83.407 25.1377 83.6438 25.0795C84.0517 24.9798 84.4643 24.9874 84.8585 25.1419C85.0384 25.2126 85.2354 25.3262 85.2581 25.5362C85.2951 25.8764 85.4936 25.9013 85.7572 25.8743C85.8932 25.8604 86.0319 25.8722 86.1685 25.8722V25.8708C86.3402 25.8708 86.5146 25.8514 86.6828 25.875C86.9924 25.918 86.9897 25.7607 86.9368 25.5334C86.7823 24.8689 86.402 24.3977 85.7806 24.1282C85.0184 23.797 84.222 23.8032 83.4207 23.9023C82.9977 23.9549 82.5906 24.0707 82.2342 24.3194C81.6492 24.7268 81.4405 25.3137 81.4872 26.0018C81.5312 26.64 81.9253 27.0183 82.4752 27.2567C82.8652 27.4257 83.2806 27.5158 83.6926 27.6114C84.1492 27.7174 84.6126 27.8054 85.0349 28.0154C85.5464 28.2697 85.5691 28.824 85.0843 29.1338C84.739 29.3548 84.3538 29.3804 83.9597 29.3111C83.4557 29.2224 83.0808 28.9772 82.9902 28.4339C82.96 28.2544 82.8542 28.2842 82.7444 28.2835C82.3667 28.2835 81.9884 28.2988 81.6122 28.2801C81.376 28.2683 81.3197 28.3376 81.3574 28.5704C81.4948 29.4206 81.9946 29.9562 82.7719 30.241C83.5306 30.5189 84.3174 30.523 85.1084 30.4177C85.5561 30.3581 85.9804 30.2251 86.3484 29.9535C86.9787 29.4878 87.2231 28.8413 87.1366 28.0764C87.0529 27.337 86.5413 26.9739 85.9007 26.7467L85.9014 26.7481Z" fill="#344569"/>
<path d="M62.0896 25.1881C62.3519 25.204 62.6156 25.1846 62.8779 25.1943C63.0276 25.1999 63.0681 25.1417 63.0784 24.9962C63.1511 24.0192 63.1546 24.0192 62.181 24.0164C62.1466 24.0164 62.1116 24.0115 62.078 24.0171C61.861 24.0524 61.8054 23.9519 61.8109 23.7448C61.8239 23.284 61.804 22.8218 61.8205 22.361C61.828 22.1414 61.7546 22.0852 61.5465 22.0936C61.1353 22.1095 60.7233 22.106 60.312 22.0942C60.1314 22.0887 60.0696 22.1476 60.0765 22.3298C60.0882 22.652 60.0793 22.9756 60.0793 23.2985C60.0793 24.0143 60.0793 24.0302 59.3844 24.0088C59.0919 23.9997 59.0232 24.0919 59.0294 24.3753C59.0466 25.1701 59.0335 25.1798 59.819 25.186C60.0346 25.1874 60.0896 25.2518 60.0854 25.4604C60.0731 26.0598 60.0813 26.6598 60.0813 27.2599H60.0992C60.0992 27.871 60.0799 28.4829 60.1047 29.0933C60.1321 29.7682 60.461 30.1466 61.1112 30.3163C61.5143 30.4216 61.9276 30.4078 62.3389 30.4016C63.0722 30.3905 63.0722 30.387 63.0715 29.6373C63.0715 29.453 63.136 29.2201 63.0495 29.0961C62.941 28.9409 62.6994 29.0739 62.516 29.0656C61.9709 29.0414 61.8267 28.916 61.8212 28.3595C61.8116 27.3909 61.8232 26.4215 61.8123 25.4528C61.8095 25.2331 61.8864 25.1749 62.0896 25.1874V25.1881Z" fill="#344569"/>
<path d="M50.7572 21.5934C50.4036 21.6135 50.0465 21.617 49.6943 21.5913C49.4155 21.5712 49.3276 21.6502 49.3304 21.9433C49.3455 23.4442 49.3379 24.9443 49.3372 26.4452C49.3372 27.6571 49.3421 28.8697 49.3311 30.0816C49.329 30.2971 49.3846 30.3539 49.5961 30.3428C49.984 30.3227 50.3747 30.322 50.7627 30.3428C51.0037 30.3553 51.0675 30.2804 51.0654 30.0379C51.0538 28.6874 51.06 27.3369 51.06 25.9858C51.06 24.6235 51.0545 23.2612 51.0654 21.899C51.0675 21.6537 50.9968 21.5795 50.7572 21.5934Z" fill="#344569"/>
<path d="M65.6614 24.2214C65.6614 24.0544 65.6099 24.001 65.4451 24.0052C65.0338 24.0149 64.6205 24.0232 64.2099 24.0017C63.9771 23.9892 63.9208 24.0717 63.9229 24.29C63.9311 25.2483 63.9263 26.2065 63.9263 27.1641H63.9236C63.9236 28.1224 63.9325 29.0807 63.9174 30.0383C63.9133 30.2892 63.9922 30.3529 64.2271 30.3425C64.6267 30.3252 65.0276 30.3287 65.4279 30.3411C65.6078 30.3467 65.6621 30.2919 65.6614 30.109C65.6559 28.1467 65.6566 26.1844 65.6614 24.2214Z" fill="#344569"/>
<path d="M65.6615 21.8318C65.669 21.6517 65.6134 21.5872 65.4322 21.5948C65.1252 21.6073 64.8176 21.599 64.5107 21.599C64.1198 21.599 63.9246 21.7999 63.925 22.2018C63.926 22.7557 64.2022 23.0329 64.7538 23.0333C64.9701 23.0333 65.1864 23.025 65.4019 23.0368C65.5812 23.0465 65.6738 23.0111 65.6608 22.7963C65.6423 22.4762 65.6478 22.1533 65.6608 21.8325L65.6615 21.8318Z" fill="#344569"/>
<path d="M33.7444 16.7665V2.7665H36.1396C37.3041 2.7665 38.3032 2.95984 39.1369 3.3465C39.9706 3.71984 40.6124 4.25984 41.0623 4.9665C41.5122 5.65984 41.7372 6.49984 41.7372 7.4865C41.7372 8.47317 41.5122 9.31984 41.0623 10.0265C40.6124 10.7332 39.9706 11.2732 39.1369 11.6465C38.3032 12.0198 37.3041 12.2065 36.1396 12.2065H34.3597L34.856 11.6865V16.7665H33.7444ZM40.7248 16.7665L37.1122 11.6865H38.3627L41.9555 16.7665H40.7248ZM34.856 11.7665L34.3597 11.2465H36.1396C37.5952 11.2465 38.7068 10.9198 39.4743 10.2665C40.2418 9.59984 40.6256 8.67317 40.6256 7.4865C40.6256 6.29984 40.2418 5.37984 39.4743 4.7265C38.7068 4.07317 37.5952 3.7465 36.1396 3.7465H34.3597L34.856 3.2265V11.7665Z" fill="#344569"/>
<path d="M50.346 16.8665C49.3138 16.8665 48.3544 16.6932 47.4678 16.3465C46.5812 15.9865 45.8137 15.4865 45.1653 14.8465C44.5168 14.2065 44.0074 13.4598 43.6368 12.6065C43.2795 11.7398 43.1009 10.7932 43.1009 9.7665C43.1009 8.73984 43.2795 7.79984 43.6368 6.9465C44.0074 6.07984 44.5168 5.3265 45.1653 4.6865C45.8137 4.0465 46.5812 3.55317 47.4678 3.2065C48.3544 2.8465 49.3138 2.6665 50.346 2.6665C51.3914 2.6665 52.3508 2.8465 53.2242 3.2065C54.1108 3.55317 54.8783 4.0465 55.5268 4.6865C56.1752 5.3265 56.678 6.07984 57.0353 6.9465C57.4059 7.79984 57.5911 8.73984 57.5911 9.7665C57.5911 10.7932 57.4059 11.7398 57.0353 12.6065C56.678 13.4598 56.1752 14.2065 55.5268 14.8465C54.8783 15.4865 54.1108 15.9865 53.2242 16.3465C52.3508 16.6932 51.3914 16.8665 50.346 16.8665ZM50.346 15.8665C51.2194 15.8665 52.0266 15.7132 52.7677 15.4065C53.522 15.0998 54.1704 14.6732 54.7129 14.1265C55.2687 13.5665 55.6988 12.9198 56.0032 12.1865C56.3207 11.4532 56.4795 10.6465 56.4795 9.7665C56.4795 8.8865 56.3207 8.07984 56.0032 7.3465C55.6988 6.61317 55.2687 5.97317 54.7129 5.4265C54.1704 4.8665 53.522 4.43317 52.7677 4.1265C52.0266 3.81984 51.2194 3.6665 50.346 3.6665C49.4726 3.6665 48.6588 3.81984 47.9045 4.1265C47.1635 4.43317 46.515 4.8665 45.9592 5.4265C45.4167 5.97317 44.9866 6.61317 44.669 7.3465C44.3647 8.07984 44.2125 8.8865 44.2125 9.7665C44.2125 10.6465 44.3647 11.4532 44.669 12.1865C44.9866 12.9198 45.4167 13.5665 45.9592 14.1265C46.515 14.6732 47.1635 15.0998 47.9045 15.4065C48.6588 15.7132 49.4726 15.8665 50.346 15.8665Z" fill="#344569"/>
<path d="M66.6867 16.8665C65.6413 16.8665 64.6753 16.6932 63.7887 16.3465C62.902 15.9865 62.1279 15.4865 61.4662 14.8465C60.8178 14.2065 60.3083 13.4598 59.9378 12.6065C59.5805 11.7398 59.4019 10.7932 59.4019 9.7665C59.4019 8.73984 59.5805 7.79984 59.9378 6.9465C60.3083 6.07984 60.8178 5.3265 61.4662 4.6865C62.1279 4.0465 62.902 3.55317 63.7887 3.2065C64.6753 2.8465 65.6479 2.6665 66.7065 2.6665C67.7123 2.6665 68.6452 2.8265 69.5053 3.1465C70.3787 3.4665 71.1264 3.95317 71.7483 4.6065L71.0536 5.3265C70.4449 4.73984 69.7832 4.31984 69.0687 4.0665C68.3541 3.79984 67.5799 3.6665 66.7462 3.6665C65.8464 3.6665 65.0193 3.81984 64.265 4.1265C63.5108 4.43317 62.8491 4.8665 62.2801 5.4265C61.7243 5.97317 61.2876 6.61984 60.97 7.3665C60.6656 8.09984 60.5135 8.89984 60.5135 9.7665C60.5135 10.6332 60.6656 11.4398 60.97 12.1865C61.2876 12.9198 61.7243 13.5665 62.2801 14.1265C62.8491 14.6732 63.5108 15.0998 64.265 15.4065C65.0193 15.7132 65.8398 15.8665 66.7264 15.8665C67.5468 15.8665 68.321 15.7398 69.0488 15.4865C69.7766 15.2332 70.4449 14.8132 71.0536 14.2265L71.6888 15.0865C71.0536 15.6732 70.2993 16.1198 69.4259 16.4265C68.5526 16.7198 67.6395 16.8665 66.6867 16.8665ZM70.6169 14.9665V9.8065H71.6888V15.0865L70.6169 14.9665Z" fill="#344569"/>
<path d="M80.3453 16.8665C79.3131 16.8665 78.3537 16.6932 77.4671 16.3465C76.5805 15.9865 75.813 15.4865 75.1646 14.8465C74.5161 14.2065 74.0067 13.4598 73.6361 12.6065C73.2788 11.7398 73.1002 10.7932 73.1002 9.7665C73.1002 8.73984 73.2788 7.79984 73.6361 6.9465C74.0067 6.07984 74.5161 5.3265 75.1646 4.6865C75.813 4.0465 76.5805 3.55317 77.4671 3.2065C78.3537 2.8465 79.3131 2.6665 80.3453 2.6665C81.3907 2.6665 82.3501 2.8465 83.2235 3.2065C84.1101 3.55317 84.8776 4.0465 85.5261 4.6865C86.1745 5.3265 86.6773 6.07984 87.0346 6.9465C87.4052 7.79984 87.5904 8.73984 87.5904 9.7665C87.5904 10.7932 87.4052 11.7398 87.0346 12.6065C86.6773 13.4598 86.1745 14.2065 85.5261 14.8465C84.8776 15.4865 84.1101 15.9865 83.2235 16.3465C82.3501 16.6932 81.3907 16.8665 80.3453 16.8665ZM80.3453 15.8665C81.2187 15.8665 82.0259 15.7132 82.767 15.4065C83.5212 15.0998 84.1697 14.6732 84.7122 14.1265C85.268 13.5665 85.6981 12.9198 86.0024 12.1865C86.32 11.4532 86.4788 10.6465 86.4788 9.7665C86.4788 8.8865 86.32 8.07984 86.0024 7.3465C85.6981 6.61317 85.268 5.97317 84.7122 5.4265C84.1697 4.8665 83.5212 4.43317 82.767 4.1265C82.0259 3.81984 81.2187 3.6665 80.3453 3.6665C79.4719 3.6665 78.6581 3.81984 77.9038 4.1265C77.1627 4.43317 76.5143 4.8665 75.9585 5.4265C75.416 5.97317 74.9859 6.61317 74.6683 7.3465C74.364 8.07984 74.2118 8.8865 74.2118 9.7665C74.2118 10.6465 74.364 11.4532 74.6683 12.1865C74.9859 12.9198 75.416 13.5665 75.9585 14.1265C76.5143 14.6732 77.1627 15.0998 77.9038 15.4065C78.6581 15.7132 79.4719 15.8665 80.3453 15.8665Z" fill="#344569"/>
</g>
<defs>
<clipPath id="clip0_151_1753">
<rect width="88" height="32" fill="white"/>
</clipPath>
</defs>
</svg>
