<svg width="24" height="24" viewBox="0 0 24 24" fill="none" xmlns="http://www.w3.org/2000/svg">
<mask id="mask0_592_12078" style="mask-type:alpha" maskUnits="userSpaceOnUse" x="0" y="0" width="24" height="24">
<rect width="24" height="24" fill="white"/>
</mask>
<g mask="url(#mask0_592_12078)">
<path d="M3.21484 21V15H5.21484V17.6L8.31484 14.5L9.71484 15.9L6.61484 19H9.21484V21H3.21484ZM15.2148 21V19H17.8148L14.7148 15.9L16.1148 14.5L19.2148 17.6V15H21.2148V21H15.2148ZM8.31484 9.5L5.21484 6.4V9H3.21484V3H9.21484V5H6.61484L9.71484 8.1L8.31484 9.5ZM16.1148 9.5L14.7148 8.1L17.8148 5H15.2148V3H21.2148V9H19.2148V6.4L16.1148 9.5ZM12.2148 14C11.6648 14 11.194 13.8042 10.8023 13.4125C10.4107 13.0208 10.2148 12.55 10.2148 12C10.2148 11.45 10.4107 10.9792 10.8023 10.5875C11.194 10.1958 11.6648 10 12.2148 10C12.7648 10 13.2357 10.1958 13.6273 10.5875C14.019 10.9792 14.2148 11.45 14.2148 12C14.2148 12.55 14.019 13.0208 13.6273 13.4125C13.2357 13.8042 12.7648 14 12.2148 14Z" fill="#323232"/>
</g>
</svg>
